<?xml version="1.0" encoding="utf-8"?>
<!-- Generator: Adobe Illustrator 23.0.2, SVG Export Plug-In . SVG Version: 6.00 Build 0)  -->
<svg version="1.1" id="Слой_1" xmlns="http://www.w3.org/2000/svg" xmlns:xlink="http://www.w3.org/1999/xlink" x="0px" y="0px"
	 viewBox="0 0 85.04 85.04" style="enable-background:new 0 0 85.04 85.04;" xml:space="preserve">
<style type="text/css">
	.st0{fill:#9E3116;}
</style>
<path class="st0" d="M14.48,14.57v2.58c0,0.88,0.85,1.59,1.9,1.59h27.38h20.58c1.05,0,1.9-0.71,1.9-1.59v-2.58
	c0-0.88-0.85-1.59-1.9-1.59H16.38C15.33,12.98,14.48,13.69,14.48,14.57z"/>
<path class="st0" d="M6.16,43.69v2.58c0,0.88,0.92,1.59,2.06,1.59h29.71h22.33c1.14,0,2.06-0.71,2.06-1.59v-2.58
	c0-0.88-0.92-1.59-2.06-1.59H8.22C7.08,42.1,6.16,42.81,6.16,43.69z"/>
<path class="st0" d="M28.43,78.16l2.56,0.27c0.87,0.09,1.69-0.9,1.83-2.22l3.62-34.48l2.72-25.92c0.14-1.32-0.46-2.46-1.33-2.55
	l-2.56-0.27c-0.87-0.09-1.69,0.9-1.83,2.22L27.1,75.6C26.96,76.92,27.55,78.07,28.43,78.16z"/>
<path class="st0" d="M55.86,78.16l2.56,0.27c0.87,0.09,1.69-0.9,1.83-2.22l3.62-34.48l2.72-25.92c0.14-1.32-0.46-2.46-1.33-2.55
	l-2.56-0.27c-0.87-0.09-1.69,0.9-1.83,2.22L54.53,75.6C54.39,76.92,54.99,78.07,55.86,78.16z"/>
<path class="st0" d="M7.97,75.34v2.58c0,0.88,1.09,1.59,2.44,1.59h35.28h26.52c1.35,0,2.44-0.71,2.44-1.59v-2.58
	c0-0.88-1.09-1.59-2.44-1.59H10.41C9.06,73.75,7.97,74.47,7.97,75.34z"/>
<path class="st0" d="M59.05,74c1.21,0.25,2.86,0.54,4.71,0.68c1.22,0.09,2.26,0.1,2.72,0.1c0.52,0,1.02,0,1.53-0.04
	c1.55-0.11,2.71-0.19,3.57-0.81c0.92-0.67,1.28-2.1,1.96-4.98c0.23-0.99,0.54-2.29,0.88-3.83c0.6,1.4,1.32,2.89,2.18,4.43
	c1.17,2.11,2.41,3.99,3.61,5.62c0.04,0.11,0.08,0.26,0.1,0.45c0.02,0.21,0,0.47-0.11,0.76c-0.18,0.47-0.54,0.77-0.71,0.91
	c-1.52,1.25-3.44,1.67-3.44,1.67c-5.2,1.14-11.39,0.18-11.44,0.18l0,0c-1.3-0.15-2.28-0.33-3.44-0.57c-1.51-0.31-2.84-0.6-3.89-0.85
	C57.86,76.47,58.45,75.24,59.05,74z"/>
<path class="st0" d="M48.65,13.23c1.21,0.25,2.86,0.54,4.71,0.68c1.22,0.09,2.26,0.1,2.72,0.1c0.52,0,1.02,0,1.53-0.04
	c1.55-0.11,2.71-0.19,3.57-0.81c0.92-0.67,1.28-2.1,1.96-4.98c0.23-0.99,0.54-2.29,0.88-3.83c0.6,1.4,1.32,2.89,2.18,4.43
	c1.17,2.11,2.41,3.99,3.61,5.62c0.04,0.11,0.08,0.26,0.1,0.45c0.02,0.21,0,0.47-0.11,0.76c-0.18,0.47-0.54,0.77-0.71,0.91
	c-1.52,1.25-3.44,1.67-3.44,1.67c-5.2,1.14-11.39,0.18-11.44,0.18l0,0c-1.3-0.15-2.28-0.33-3.44-0.57c-1.51-0.31-2.84-0.6-3.89-0.85
	C47.47,15.7,48.06,14.46,48.65,13.23z"/>
</svg>
