<?xml version="1.0" encoding="utf-8"?>
<!-- Generator: Adobe Illustrator 23.0.2, SVG Export Plug-In . SVG Version: 6.00 Build 0)  -->
<svg version="1.1" id="Слой_1" xmlns="http://www.w3.org/2000/svg" xmlns:xlink="http://www.w3.org/1999/xlink" x="0px" y="0px"
	 viewBox="0 0 85.04 85.04" style="enable-background:new 0 0 85.04 85.04;" xml:space="preserve">
<style type="text/css">
	.st0{fill:#403C3D;}
</style>
<path class="st0" d="M4.9,5.7v2.81c0,0.96,1.25,1.73,2.78,1.73h4.84h35.31h30.19c1.54,0,2.78-0.78,2.78-1.73V5.7
	c0-0.96-1.25-1.73-2.78-1.73H7.68C6.15,3.96,4.9,4.74,4.9,5.7z"/>
<path class="st0" d="M15.67,22h0.68c1.37,0,2.49,1.11,2.49,2.49v53.16c0,1.37-1.11,2.49-2.49,2.49h-0.68
	c-1.37,0-2.49-1.11-2.49-2.49V24.49C13.18,23.11,14.3,22,15.67,22z"/>
<path class="st0" d="M13.18,24.63v-0.14c0-1.37,1.11-2.49,2.49-2.49h54.71c1.37,0,2.49,1.11,2.49,2.49v0.14
	c0,1.37-1.11,2.49-2.49,2.49H15.67C14.3,27.12,13.18,26.01,13.18,24.63z"/>
<path class="st0" d="M69.71,22h0.68c1.37,0,2.49,1.11,2.49,2.49v53.16c0,1.37-1.11,2.49-2.49,2.49h-0.68
	c-1.37,0-2.49-1.11-2.49-2.49V24.49C67.22,23.11,68.33,22,69.71,22z"/>
<path class="st0" d="M13.18,69.88v-0.14c0-1.37,1.11-2.49,2.49-2.49h54.71c1.37,0,2.49,1.11,2.49,2.49v0.14
	c0,1.37-1.11,2.49-2.49,2.49H15.67C14.3,72.37,13.18,71.25,13.18,69.88z"/>
<path class="st0" d="M23.94,58.02L23.94,58.02c0-1.3,1.06-2.36,2.36-2.36h33.47c1.3,0,2.36,1.06,2.36,2.36v0
	c0,1.3-1.06,2.36-2.36,2.36H26.3C24.99,60.38,23.94,59.32,23.94,58.02z"/>
<path class="st0" d="M29.7,25.73c0.06-1.26,0.12-3.45,0-6.38c-0.02-0.57-0.04-0.78-0.3-5.48c-0.16-2.84-0.24-4.53,0.42-4.86
	c0.34-0.17,0.74,0.1,1.95-0.16C32,8.8,32.11,8.76,32.19,8.74c1.7-0.42,3.28,0.49,3.35,1.93c0.16,2.89,0.18,5.99,0.02,9.29
	c-0.19,3.69-0.04,2.88-0.5,5.96c-0.81,5.38-2.46,9.61-3.86,13.1c-0.26,0.66-0.53,1.29-0.53,1.29c-0.22,0.51-0.48,1.11-0.83,1.87
	c-0.69,1.5-1.38,2.85-2.47,5.03c-0.22,0.43-1.07,2.14-2.49,4.16c-0.44,0.62-0.98,1.35-1.94,1.59c-0.54,0.14-1.37,0.13-1.82-0.26
	c-0.06-0.05-0.34-0.3-0.32-0.64c0.01-0.31,0.26-0.71,0.26-0.71c-0.54,0.87,2.18-3.49,2.44-4c0.64-1.23,1.34-2.78,1.51-3.14
	c0.03-0.07,0.1-0.22,0.19-0.43c0.92-2.09,1.38-3.13,1.91-4.58c0.42-1.16,1.18-3.27,1.75-5.98C29.46,30.43,29.56,28.38,29.7,25.73z"
	/>
<path class="st0" d="M54.88,46.02c-0.67-0.43-2.35-1.55-3.65-3.98c0,0-0.13-0.23-0.24-0.47c-0.54-1.2-1.08-3.69-1.43-13.42
	c-0.09-2.5-0.17-4.33-0.14-6.85c0.08-9.25,0.41-9.89,0.3-12.61c-0.14-3.43,3.89-3.55,5.48-3.84c-0.15,2.09-0.33,4.98-0.44,8.44
	c-0.02,0.77-0.09,3.18-0.1,6.82c0,0-0.01,8.24,1.34,16.89c0.24,1.51,0.63,2.22,1.13,3.17c0.5,0.95,1.09,1.87,1.83,2.48
	c1.58,1.29,3.85,0.92,4.56,0.78c-0.48,0.79-1.32,1.91-2.64,2.71c-0.68,0.42-1.25,0.6-1.41,0.66c-0.47,0.15-1.25,0.4-2.21,0.28
	C56.31,46.94,55.61,46.49,54.88,46.02z"/>
</svg>
