<?xml version="1.0" encoding="utf-8"?>
<!-- Generator: Adobe Illustrator 23.0.2, SVG Export Plug-In . SVG Version: 6.00 Build 0)  -->
<svg version="1.1" id="Слой_1" xmlns="http://www.w3.org/2000/svg" xmlns:xlink="http://www.w3.org/1999/xlink" x="0px" y="0px"
	 viewBox="0 0 85.04 85.04" style="enable-background:new 0 0 85.04 85.04;" xml:space="preserve">
<style type="text/css">
	.st0{fill:#9E3116;}
</style>
<path class="st0" d="M14.34,19.69v2.45c0,0.83,1.07,1.51,2.39,1.51h4.17h30.36h25.95c1.32,0,2.39-0.68,2.39-1.51v-2.45
	c0-0.83-1.07-1.51-2.39-1.51H16.73C15.41,18.18,14.34,18.85,14.34,19.69z"/>
<path class="st0" d="M13.12,48.41c0.56-5.74,0.97-11.92,1.11-18.5c0.04-1.64,0.06-3.26,0.06-4.85c0-0.46,0-0.86,0-1.66
	c0-1.12,0.01-1.69,0.05-1.8c0.4-1.21,1.87-1.93,3.01-2.11c0.03-0.01,0.05-0.01,0.07-0.01c2.13-0.32,4.08,1.51,4.14,3.91
	c0.1,4.42,0.05,9.13-0.22,14.1c-0.17,3.18-0.43,6.23-0.74,9.13c-0.56,4.7-1.56,10.38-3.38,16.58c-1.57,5.35-3.41,9.91-5.19,13.67
	c-0.79,1.66-2.5,2.48-4.14,1.96l-0.08-0.03c-2.3-0.73-3.38-3.69-2.16-5.94c1.61-2.97,3.25-6.61,4.63-10.93
	C11.9,56.82,12.71,52.16,13.12,48.41z"/>
<path class="st0" d="M49.45,34.57c-0.44-5.32-0.72-11.04-0.74-17.13c-0.01-2.09,0.02-4.13,0.07-6.13c0.04-1.77-1.15-3.3-2.81-3.6
	l-0.31-0.06c-2.01-0.37-3.88,1.18-3.98,3.33c-0.19,4.12-0.23,8.52-0.06,13.17c0.11,2.94,0.3,5.77,0.55,8.45
	c0.37,4.04,1.02,9.45,2.99,15.44c0.95,2.89,3.24,9.66,8.89,16.49c0.63,0.76,1.24,1.45,1.81,2.06c1.46,1.56,2.74,2.72,3.52,3.39
	c2.22,1.92,4.07,3.13,5.52,4.07c1.68,1.09,2.67,1.61,3.06,1.81c0.56,0.29,1.07,0.53,1.52,0.73c0.86,0.38,1.3,0.57,1.67,0.67
	c0.7,0.19,2.26,0.62,3.59-0.13c0.47-0.26,0.74-0.58,1.03-0.46c0.4,0.18,0.52,1.12,0.33,1.28c-0.57,0.46-5.34-4.94-11.27-12.08
	c0.21-0.06,0.41-0.12,0.62-0.18c-0.38-0.26-0.92-0.64-1.55-1.14c-7.81-6.09-10.92-14.52-11.92-17.41
	C50.47,42.79,49.8,38.79,49.45,34.57z"/>
<path class="st0" d="M57.41,57.78c1.55,2.05,3.04,3.56,4.17,4.6c1.01,0.92,2.33,2.1,4.28,3.23c2.29,1.33,3.44,2,4.74,1.82
	c1.4-0.19,2.23-1.16,5.66-5.58c0.95-1.22,2.19-2.83,3.65-4.73c-0.28,2.39-0.5,4.98-0.6,7.75c-0.13,3.8-0.03,7.3,0.21,10.44
	c-0.03,0.18-0.09,0.42-0.2,0.69c-0.13,0.31-0.33,0.66-0.65,0.98c-0.53,0.52-1.14,0.69-1.44,0.77c-2.58,0.67-5.05-0.11-5.05-0.11
	c-6.7-2.11-13.07-7.9-13.07-7.9c-1.42-1.29-3.38-3.21-5.52-5.78C54.86,61.89,56.13,59.83,57.41,57.78z"/>
<path class="st0" d="M44.82,57.11c-4.59,3.76-8.63,6.31-15.18,10.47c-1.92,1.22-3.82,2.39-5.69,3.51c-1.59,0.95-2.31,2.82-1.7,4.39
	c0.06,0.16,0.12,0.32,0.19,0.48c0.74,1.91,3.11,2.63,5.05,1.53c3.88-2.21,7.95-4.72,12.12-7.56c2.62-1.79,5.08-3.57,7.39-5.32
	c6.34-4.82,10.51-9.39,12.41-11.47c1.26-1.37,4.66-5.17,8.43-10.58c2.15-3.08,3.94-6,5.42-8.65c1.11-1.99,0.2-4.31-1.93-4.87h0
	c-1.64-0.43-3.48,0.35-4.35,1.87c-1.99,3.45-4.58,7.43-7.91,11.64C52.89,50.34,46.96,55.36,44.82,57.11z"/>
<path class="st0" d="M50.36,42.74c0.58,2.32,1.44,5.04,2.74,7.96c0.92,2.05,1.9,3.84,2.85,5.38c0.46,0.68,1.07,1.53,1.83,2.48
	c1.49,1.85,2.81,3.12,3.36,3.63c1.32,1.24,3.22,2.81,5.75,4.31c-0.11,2.76-0.22,5.53-0.33,8.29c-3.24-1.87-8.27-5.31-12.92-11.19
	c-4.79-6.05-7.11-12.06-8.25-15.8C47.04,46.11,48.7,44.43,50.36,42.74z"/>
<path class="st0" d="M61.81,6.31c-0.19,0-0.53,0.03-0.77,0.27c-0.39,0.41-0.38,1.28,0.19,2.02c0.57,0.83,1.21,1.69,1.93,2.56
	c1.47,1.79,2.96,3.24,4.33,4.42c1.47,1.15,3.33,1.08,4.36,0.04c0.94-0.94,0.86-2.35,0.84-2.59c-0.19-0.61-0.6-1.7-1.53-2.75
	c-0.89-1.01-1.84-1.52-2.4-1.77c-0.84-0.42-1.81-0.85-2.91-1.23C64.36,6.78,62.99,6.49,61.81,6.31z"/>
<polygon class="st0" points="14.58,20.08 14.58,28.35 21.35,24.22 20.63,18.94 15.97,19.12 "/>
<polygon class="st0" points="49.27,23.65 19.97,23.65 19.97,18.44 54.29,18.44 "/>
<path class="st0" d="M13.81,47.86V47c0-1.37,1.11-2.49,2.49-2.49h17.86c1.37,0,2.49,1.11,2.49,2.49v0.86c0,1.37-1.11,2.49-2.49,2.49
	H16.3C14.93,50.35,13.81,49.23,13.81,47.86z"/>
<path class="st0" d="M20.09,44.56c1.27,0.27,3,0.57,4.95,0.71c1.28,0.1,2.37,0.1,2.86,0.1c0.54,0,1.07,0,1.61-0.04
	c1.62-0.11,2.84-0.2,3.74-0.85c0.97-0.7,1.34-2.21,2.06-5.23c0.24-1.04,0.56-2.41,0.93-4.02c0.63,1.47,1.39,3.03,2.29,4.65
	c1.23,2.22,2.53,4.18,3.8,5.9c0.04,0.11,0.09,0.27,0.1,0.47c0.02,0.22,0,0.5-0.12,0.8c-0.19,0.49-0.56,0.8-0.75,0.96
	c-1.59,1.31-3.61,1.75-3.61,1.75c-5.46,1.2-11.97,0.19-12.02,0.18l0,0c-1.36-0.16-2.39-0.35-3.61-0.6
	c-1.58-0.32-2.98-0.64-4.08-0.89C18.84,47.15,19.47,45.85,20.09,44.56z"/>
</svg>
