<?xml version="1.0" encoding="utf-8"?>
<!-- Generator: Adobe Illustrator 23.0.2, SVG Export Plug-In . SVG Version: 6.00 Build 0)  -->
<svg version="1.1" id="Слой_1" xmlns="http://www.w3.org/2000/svg" xmlns:xlink="http://www.w3.org/1999/xlink" x="0px" y="0px"
	 viewBox="0 0 85.04 85.04" style="enable-background:new 0 0 85.04 85.04;" xml:space="preserve">
<style type="text/css">
	.st0{fill:#9E3116;}
</style>
<path class="st0" d="M15.98,12.9v2.7c0,0.92,0.89,1.66,1.98,1.66h3.45h25.15h21.5c1.09,0,1.98-0.74,1.98-1.66v-2.7
	c0-0.92-0.89-1.66-1.98-1.66h-50.1C16.87,11.24,15.98,11.98,15.98,12.9z"/>
<path class="st0" d="M14.97,43.71c0.47-6.16,0.8-12.8,0.92-19.87c0.03-1.76,0.05-3.5,0.05-5.21c0-0.49,0-0.92,0-1.79
	c0-1.2,0.01-1.81,0.04-1.93c0.33-1.3,1.55-2.07,2.49-2.27c0.03-0.01,0.04-0.01,0.06-0.01c1.77-0.35,3.38,1.62,3.43,4.2
	c0.09,4.74,0.04,9.8-0.18,15.14c-0.14,3.42-0.35,6.69-0.61,9.8c-0.46,5.05-1.29,11.14-2.8,17.8c-1.3,5.74-2.82,10.64-4.3,14.68
	c-0.65,1.78-2.07,2.67-3.43,2.1l-0.07-0.03c-1.9-0.79-2.8-3.96-1.79-6.38c1.33-3.19,2.7-7.1,3.84-11.74
	C13.96,52.74,14.63,47.73,14.97,43.71z"/>
<path class="st0" d="M17.68,40.26v2.36c0,0.8,0.93,1.46,2.08,1.46h3.63h26.46h22.62c1.15,0,2.08-0.65,2.08-1.46v-2.36
	c0-0.8-0.93-1.46-2.08-1.46H19.76C18.61,38.8,17.68,39.45,17.68,40.26z"/>
<path class="st0" d="M55.27,59.27c1,1.08,2.4,2.49,4.07,3.85c1.1,0.9,2.07,1.58,2.51,1.88c0.49,0.34,0.96,0.66,1.46,0.95
	c1.51,0.88,2.64,1.54,3.78,1.37c1.22-0.18,2.31-1.62,4.46-4.53c0.74-1,1.71-2.32,2.84-3.88c-0.17,2.02-0.27,4.22-0.28,6.56
	c-0.01,3.22,0.17,6.2,0.45,8.89c-0.02,0.15-0.06,0.36-0.14,0.58c-0.1,0.26-0.25,0.55-0.51,0.81c-0.42,0.43-0.91,0.54-1.15,0.6
	c-2.08,0.47-4.11-0.29-4.11-0.29c-5.49-2.05-10.81-7.19-10.85-7.23l0,0c-1.14-1.01-1.97-1.87-2.93-2.9
	c-1.26-1.34-2.35-2.55-3.21-3.51C52.86,61.38,54.06,60.32,55.27,59.27z"/>
<path class="st0" d="M48.23,42.75c0.16,1.56,0.51,3.79,1.37,6.29c1.11,3.25,2.51,5.34,3.85,7.31c1.38,2.02,3.51,4.76,6.57,7.44
	c3.27,4.19,6.54,8.38,9.81,12.58c-3.34-0.99-14.56-4.89-21.74-18.13c-3.07-5.67-4.43-11.25-5.07-15.22
	C44.75,42.93,46.49,42.84,48.23,42.75z"/>
<path class="st0" d="M62.69,46.66c-3.31,3.55-6.63,7.09-9.94,10.64l2.26,3c4.44-3.36,8.89-6.71,13.33-10.07
	C66.46,49.04,64.58,47.85,62.69,46.66z"/>
<path class="st0" d="M33.74,42.75h-2.47c-0.84,0-1.52,0.41-1.52,0.92v1.59v11.62v9.93c0,0.51,0.68,0.92,1.52,0.92h2.47
	c0.84,0,1.52-0.41,1.52-0.92V43.67C35.26,43.16,34.58,42.75,33.74,42.75z"/>
<path class="st0" d="M45.64,63.49c-1.46,0.4-3.43,0.98-5.55,1.76c-1.39,0.52-2.55,1.01-3.06,1.23c-0.57,0.25-1.13,0.49-1.68,0.76
	c-1.66,0.81-2.9,1.42-3.55,2.27c-0.69,0.91-0.38,2.1,0.3,4.47c0.23,0.81,0.54,1.88,0.92,3.14c-1.36-0.71-2.89-1.42-4.6-2.11
	c-2.34-0.94-4.64-1.68-6.78-2.27c-0.1-0.06-0.22-0.15-0.33-0.27c-0.12-0.14-0.23-0.34-0.25-0.59c-0.03-0.42,0.21-0.8,0.34-0.99
	c1.06-1.61,2.98-2.83,2.98-2.83c5.19-3.29,12.52-5.56,12.58-5.58l0,0c1.51-0.51,2.68-0.85,4.09-1.23c1.82-0.5,3.44-0.92,4.72-1.25
	C45.73,61.16,45.69,62.32,45.64,63.49z"/>
<path class="st0" d="M24.29,26.68v2.7c0,0.92,0.68,1.66,1.52,1.66h2.66h19.35h16.54c0.84,0,1.52-0.74,1.52-1.66v-2.7
	c0-0.92-0.68-1.66-1.52-1.66H25.81C24.97,25.02,24.29,25.77,24.29,26.68z"/>
<path class="st0" d="M61.08,38.83c0.87,0.3,2.07,0.66,3.43,0.92c0.89,0.18,1.66,0.27,2.01,0.32c0.38,0.05,0.76,0.09,1.14,0.11
	c1.15,0.06,2.02,0.1,2.71-0.28c0.74-0.41,1.14-1.44,1.89-3.52c0.26-0.71,0.6-1.65,1-2.76c0.32,1.09,0.72,2.25,1.22,3.47
	c0.68,1.67,1.43,3.17,2.18,4.48c0.02,0.08,0.04,0.2,0.03,0.34c-0.01,0.16-0.04,0.35-0.15,0.55c-0.18,0.33-0.46,0.52-0.61,0.61
	c-1.23,0.79-2.7,0.93-2.7,0.93c-3.95,0.38-8.45-0.88-8.49-0.89l0,0c-0.95-0.22-1.66-0.45-2.5-0.73c-1.09-0.36-2.05-0.7-2.8-0.97
	C59.98,40.55,60.53,39.69,61.08,38.83z"/>
<path class="st0" d="M53.57,25.79c0.87,0.3,2.07,0.66,3.43,0.92c0.89,0.18,1.66,0.27,2.01,0.32c0.38,0.05,0.76,0.09,1.14,0.11
	c1.15,0.06,2.02,0.1,2.71-0.28c0.74-0.41,1.14-1.44,1.89-3.52c0.26-0.71,0.6-1.65,1-2.76c0.32,1.09,0.72,2.25,1.22,3.47
	c0.68,1.67,1.43,3.17,2.18,4.48c0.02,0.08,0.04,0.2,0.03,0.34c-0.01,0.16-0.04,0.35-0.15,0.55c-0.18,0.33-0.46,0.52-0.61,0.61
	c-1.23,0.79-2.7,0.93-2.7,0.93c-3.95,0.38-8.45-0.88-8.49-0.89l0,0c-0.95-0.22-1.66-0.45-2.5-0.73c-1.09-0.36-2.05-0.7-2.8-0.97
	C52.47,27.52,53.02,26.65,53.57,25.79z"/>
<path class="st0" d="M56.1,12.01c0.87,0.3,2.07,0.66,3.43,0.92c0.89,0.18,1.66,0.27,2.01,0.32c0.38,0.05,0.76,0.09,1.14,0.11
	c1.15,0.06,2.02,0.1,2.71-0.28c0.74-0.41,1.14-1.44,1.89-3.52c0.26-0.71,0.6-1.65,1-2.76c0.32,1.09,0.72,2.25,1.22,3.47
	c0.68,1.67,1.43,3.17,2.18,4.48c0.02,0.08,0.04,0.2,0.03,0.34c-0.01,0.16-0.04,0.35-0.15,0.55c-0.18,0.33-0.46,0.52-0.61,0.61
	c-1.23,0.79-2.7,0.93-2.7,0.93c-3.95,0.38-8.45-0.88-8.49-0.89l0,0c-0.95-0.22-1.66-0.45-2.5-0.73c-1.09-0.36-2.05-0.7-2.8-0.97
	C55,13.74,55.55,12.87,56.1,12.01z"/>
</svg>
