<?xml version="1.0" encoding="utf-8"?>
<!-- Generator: Adobe Illustrator 23.0.2, SVG Export Plug-In . SVG Version: 6.00 Build 0)  -->
<svg version="1.1" id="Слой_1" xmlns="http://www.w3.org/2000/svg" xmlns:xlink="http://www.w3.org/1999/xlink" x="0px" y="0px"
	 viewBox="0 0 85.04 85.04" style="enable-background:new 0 0 85.04 85.04;" xml:space="preserve">
<style type="text/css">
	.st0{fill:#9E3116;}
</style>
<path class="st0" d="M15.1,20.09v2.65c0,0.9,1.01,1.64,2.25,1.64h3.93H49.9h24.46c1.25,0,2.25-0.73,2.25-1.64v-2.65
	c0-0.9-1.01-1.64-2.25-1.64h-57C16.11,18.46,15.1,19.19,15.1,20.09z"/>
<path class="st0" d="M13.95,46.96c0.53-5.41,0.91-11.23,1.05-17.44c0.04-1.55,0.05-3.07,0.06-4.57c0-0.43,0-0.81,0-1.57
	c0-1.06,0.01-1.59,0.04-1.7c0.38-1.14,1.76-1.82,2.83-1.99c0.03,0,0.05-0.01,0.07-0.01c2.01-0.3,3.85,1.42,3.9,3.69
	c0.1,4.16,0.05,8.61-0.21,13.29c-0.16,3-0.4,5.87-0.69,8.6c-0.53,4.43-1.47,9.78-3.19,15.63c-1.48,5.04-3.21,9.34-4.89,12.89
	c-0.74,1.57-2.35,2.34-3.9,1.85l-0.08-0.03c-2.16-0.69-3.18-3.48-2.03-5.6c1.51-2.8,3.07-6.23,4.37-10.31
	C12.8,54.88,13.57,50.49,13.95,46.96z"/>
<path class="st0" d="M48.2,33.91c-0.42-5.01-0.67-10.4-0.69-16.14c-0.01-1.97,0.02-3.89,0.06-5.78c0.04-1.67-1.08-3.11-2.64-3.4
	l-0.29-0.05c-1.89-0.35-3.66,1.12-3.75,3.13c-0.18,3.88-0.22,8.03-0.06,12.41c0.1,2.78,0.28,5.43,0.51,7.97
	c0.35,3.8,0.96,8.91,2.82,14.55c0.9,2.72,3.06,9.11,8.38,15.54c0.59,0.72,1.17,1.36,1.71,1.94c1.38,1.47,2.58,2.56,3.32,3.2
	c2.09,1.81,3.84,2.95,5.2,3.84c1.58,1.03,2.52,1.52,2.88,1.71c0.53,0.27,1.01,0.5,1.43,0.68c0.81,0.36,1.22,0.54,1.57,0.63
	c0.66,0.18,2.13,0.58,3.38-0.12c0.44-0.25,0.7-0.55,0.97-0.43c0.37,0.17,0.49,1.06,0.31,1.2c-0.54,0.44-5.04-4.65-10.62-11.39
	c0.19-0.06,0.39-0.11,0.58-0.17c-0.36-0.25-0.87-0.61-1.46-1.07c-7.36-5.74-10.29-13.68-11.23-16.41
	C49.16,41.66,48.53,37.89,48.2,33.91z"/>
<path class="st0" d="M55.7,55.78c1.46,1.94,2.86,3.36,3.93,4.33c0.95,0.87,2.19,1.98,4.03,3.05c2.16,1.26,3.24,1.89,4.47,1.72
	c1.32-0.18,2.1-1.09,5.33-5.26c0.89-1.15,2.06-2.67,3.44-4.46c-0.27,2.25-0.47,4.69-0.56,7.3c-0.13,3.58-0.03,6.88,0.2,9.84
	c-0.03,0.17-0.08,0.4-0.19,0.65c-0.12,0.29-0.31,0.62-0.62,0.93c-0.5,0.49-1.07,0.65-1.35,0.73c-2.43,0.63-4.76-0.11-4.76-0.11
	c-6.31-1.99-12.32-7.45-12.32-7.45c-1.34-1.21-3.18-3.02-5.2-5.45C53.29,59.66,54.49,57.72,55.7,55.78z"/>
<path class="st0" d="M43.83,55.16c-4.33,3.54-8.13,5.95-14.31,9.86c-1.81,1.15-3.6,2.25-5.37,3.3c-1.5,0.89-2.17,2.65-1.6,4.14
	c0.06,0.15,0.12,0.3,0.18,0.46c0.7,1.8,2.93,2.48,4.76,1.44c3.66-2.08,7.49-4.44,11.42-7.12c2.47-1.68,4.79-3.36,6.97-5.02
	c5.98-4.54,9.91-8.85,11.7-10.81c1.18-1.29,4.39-4.87,7.95-9.97c2.03-2.91,3.71-5.66,5.11-8.15c1.05-1.87,0.19-4.06-1.82-4.59l0,0
	c-1.55-0.4-3.28,0.33-4.1,1.76c-1.88,3.25-4.32,7.01-7.46,10.97C51.44,48.77,45.85,53.51,43.83,55.16z"/>
<path class="st0" d="M49.05,41.61c0.54,2.19,1.35,4.75,2.58,7.5c0.87,1.93,1.79,3.62,2.68,5.07c0.44,0.64,1.01,1.45,1.73,2.34
	c1.4,1.74,2.65,2.94,3.16,3.42c1.25,1.17,3.04,2.65,5.42,4.06c-0.1,2.6-0.21,5.21-0.31,7.81c-3.05-1.76-7.79-5.01-12.18-10.55
	c-4.51-5.7-6.7-11.37-7.78-14.89C45.92,44.79,47.49,43.2,49.05,41.61z"/>
<path class="st0" d="M59.85,7.28c-0.18,0-0.5,0.02-0.72,0.26c-0.37,0.38-0.36,1.21,0.18,1.9c0.54,0.78,1.14,1.59,1.82,2.42
	c1.39,1.68,2.79,3.06,4.08,4.16c1.38,1.08,3.14,1.02,4.11,0.04c0.88-0.89,0.81-2.22,0.79-2.44c-0.18-0.57-0.57-1.6-1.44-2.59
	c-0.84-0.95-1.74-1.43-2.26-1.66c-0.79-0.4-1.71-0.8-2.74-1.15C62.25,7.72,60.96,7.44,59.85,7.28z"/>
<polygon class="st0" points="15.33,20.25 15.33,28.05 21.72,24.15 21.03,19.18 16.64,19.35 "/>
<polygon class="st0" points="48.03,24.13 20.41,24.13 20.41,18.71 52.76,18.71 "/>
</svg>
