<?xml version="1.0" encoding="utf-8"?>
<!-- Generator: Adobe Illustrator 23.0.2, SVG Export Plug-In . SVG Version: 6.00 Build 0)  -->
<svg version="1.1" id="Слой_1" xmlns="http://www.w3.org/2000/svg" xmlns:xlink="http://www.w3.org/1999/xlink" x="0px" y="0px"
	 viewBox="0 0 85.04 85.04" style="enable-background:new 0 0 85.04 85.04;" xml:space="preserve">
<style type="text/css">
	.st0{fill:#9E3116;}
</style>
<path class="st0" d="M8.47,12.33c0.36-0.49,0.94-0.74,1.52-0.74h52.17c0.58,0,1.16,0.25,1.52,0.74c1.7,2.32,0.16,4.88-1.96,4.88
	h-51.3C8.31,17.21,6.77,14.65,8.47,12.33z"/>
<path class="st0" d="M45.24,68.11c2.69,0.01,5.94-0.1,9.32-0.5c0.95-0.11,1.76-0.23,3.37-0.47c3.78-0.56,4.44-0.77,4.94-0.96
	c1.46-0.57,2.79-1.08,3.64-2.35c0.87-1.3,0.66-3.52,0.24-7.91c-0.15-1.52-0.34-3.52-0.59-5.87c1.36,1.84,2.9,3.77,4.63,5.73
	c2.38,2.7,4.73,5.02,6.94,7c0.1,0.15,0.22,0.35,0.31,0.62c0.11,0.3,0.2,0.69,0.19,1.14c-0.02,0.74-0.33,1.29-0.48,1.56
	c-1.32,2.3-3.53,3.57-3.53,3.57c-3.8,2.17-8.24,2.92-8.77,3.01c-2.86,0.46-6.83,0.88-11.64,0.7C50.96,71.63,48.1,69.87,45.24,68.11z
	"/>
<path class="st0" d="M11.21,32.57c0.34-0.46,0.89-0.7,1.45-0.7h49.62c0.56,0,1.11,0.24,1.45,0.7c1.62,2.21,0.15,4.64-1.86,4.64
	H13.07C11.06,37.22,9.59,34.78,11.21,32.57z"/>
<path class="st0" d="M63.7,11.98c0.46,0.19,0.7,0.51,0.7,0.82v28.19c0,0.32-0.24,0.63-0.7,0.82c-2.2,0.92-4.63,0.08-4.63-1.06V13.04
	C59.07,11.9,61.5,11.07,63.7,11.98z"/>
<path class="st0" d="M10.81,55.29c-0.1-6.92-0.2-13.83-0.3-20.75c2.41,0.92,4.81,1.83,7.22,2.75c-0.03,2-0.05,5,0.04,8.64
	c0.15,6.54,0.24,9.85,1.04,11.94c1.52,3.99,4.98,8.12,9.41,9.5c1.53,0.48,3.47,0.54,7.34,0.67c1.26,0.04,1.99,0.03,6.57,0.04
	c1.96,0.01,3.57,0.01,4.62,0.02c2.53,1.78,5.05,3.55,7.58,5.33c-8.29,0-16.59,0-24.88,0c-2.25,0.07-9.26-0.03-13.99-5.27
	C12.47,64.86,10.89,61.13,10.81,55.29z"/>
<path class="st0" d="M17.49,37.84c0-0.45,0.01-0.89,0.01-1.34c-2.25-0.71-4.5-1.41-6.75-2.12v0.66C13,35.98,15.24,36.91,17.49,37.84
	z"/>
<polygon class="st0" points="18.32,36.97 17.2,36.97 17.27,36.76 "/>
<path class="st0" d="M58.29,32.12h1.57c-0.04,1.62-0.08,3.23-0.12,4.85c-0.38,0-0.76,0-1.14,0L58.29,32.12z"/>
<path class="st0" d="M56.92,11.84h4.75c-0.12,1.71-0.24,3.42-0.36,5.13c-1.15,0-2.29,0-3.44,0L56.92,11.84z"/>
</svg>
