<?xml version="1.0" encoding="utf-8"?>
<!-- Generator: Adobe Illustrator 23.0.2, SVG Export Plug-In . SVG Version: 6.00 Build 0)  -->
<svg version="1.1" id="Слой_1" xmlns="http://www.w3.org/2000/svg" xmlns:xlink="http://www.w3.org/1999/xlink" x="0px" y="0px"
	 viewBox="0 0 85.04 85.04" style="enable-background:new 0 0 85.04 85.04;" xml:space="preserve">
<style type="text/css">
	.st0{fill:#E30613;}
</style>
<path class="st0" d="M15.35,26.14c-1.62,0-2.93,1.29-2.94,2.89l-0.02,47.25c-0.23,2.26,1.52,4.23,3.69,4.33
	c2.23,0.11,4.21-1.79,4.11-4.12l-0.01-40.44c0-1.6,1.32-2.89,2.94-2.89h42.07c1.62,0,2.94,1.29,2.94,2.89c0,4.82,0,9.64,0,14.46
	c0,6.23,0,12.47,0,18.7c-0.02,0.31-0.2,3.18-2.39,4.4c-0.2,0.11-1.72,1.06-3.08,0.49c-1.56-0.66-1.31-2.65-2.59-4.22
	c-0.89-1.09-2.72-2.21-6.87-2c2.89,1.97,5.09,3.76,6.58,5.06c2.45,2.12,3.98,3.76,5.15,3.29c0.76-0.31,0.79-1.27,1.38-2.67
	c1.22-2.88,3.42-4.25,4.39-5.11c1.89-1.67,3.94-5.65,4.74-15.67c0-0.45-0.01-1.32,0.02-2.42c0.12-5.86,0-16.78,0-21.32
	c0-1.6-1.3-2.89-2.92-2.89C55.25,26.14,24.93,26.14,15.35,26.14z"/>
<path class="st0" d="M7.37,11.29v3.04c0,1.03,1.22,1.87,2.72,1.87H49.3h29.47c1.5,0,2.72-0.84,2.72-1.87v-3.04
	c0-1.03-1.22-1.87-2.72-1.87H10.09C8.59,9.41,7.37,10.25,7.37,11.29z"/>
<path class="st0" d="M47.3,39.86c0.54-2.87,1.01-5.98,1.36-9.29c0.54-5.11,0.71-9.83,0.66-14.07c-3.1,0-6.21,0-9.31,0
	c0,4.93,0,9.86,0,14.79c-0.09,3.33-0.74,10.7-5.35,18.13c-3.22,5.18-7.08,8.32-9.55,10.01c-1.48,1.24-1.8,3.5-0.76,5.13
	c1.06,1.66,3.21,2.16,4.85,1.1c2.44-1.99,5.26-4.62,8.08-8.01c3.26-3.92,5.59-7.74,7.24-10.9c2.18,1.42,4.68,3.28,7.24,5.67
	c3.02,2.82,5.35,5.65,7.09,8.09c1.45,1.36,3.58,1.26,4.75-0.02c0.95-1.05,1.15-2.75,0.44-4.17c-2.24-2.96-5.04-6.25-8.5-9.57
	C52.66,44,49.86,41.72,47.3,39.86z"/>
<rect x="40.31" y="14.91" class="st0" width="8.71" height="5.48"/>
<path class="st0" d="M68.49,51.2c-0.03,1.16-0.1,2.77-0.29,4.69c-0.23,2.39-0.39,3.98-0.93,5.91c-0.8,2.87-1.21,4.3-2.38,5.21
	c-1.26,0.98-2.67,0.92-8.81,0.35c-1.69-0.16-3.92-0.37-6.55-0.64c2.06,1.58,4.23,3.37,6.43,5.39c3.03,2.77,5.63,5.5,7.86,8.08
	c0.16,0.11,0.4,0.25,0.69,0.36c0.34,0.13,0.77,0.23,1.28,0.22c0.82-0.03,1.44-0.39,1.74-0.58c2.55-1.57,3.94-4.17,3.94-4.17
	c2.39-4.47,3.18-9.7,3.27-10.32c0.49-3.36,0.92-8.02,0.67-13.67C73.12,51.76,70.81,51.48,68.49,51.2z"/>
<polygon class="st0" points="68.42,50.26 68.42,57.23 75.19,54.65 75.19,49.39 "/>
</svg>
