<?xml version="1.0" encoding="utf-8"?>
<!-- Generator: Adobe Illustrator 23.0.2, SVG Export Plug-In . SVG Version: 6.00 Build 0)  -->
<svg version="1.1" id="Слой_1" xmlns="http://www.w3.org/2000/svg" xmlns:xlink="http://www.w3.org/1999/xlink" x="0px" y="0px"
	 viewBox="0 0 85.04 85.04" style="enable-background:new 0 0 85.04 85.04;" xml:space="preserve">
<style type="text/css">
	.st0{fill:#E30613;}
</style>
<path class="st0" d="M78.89,14.69c0,1.12-1.31,2.03-2.93,2.03H40.14H11.59c-1.62,0-2.93-0.91-2.93-2.03V12.1
	c0-1.12,1.31-2.03,2.93-2.03h64.37c1.62,0,2.93,0.91,2.93,2.03V14.69z"/>
<path class="st0" d="M47.84,51.31c-0.24,1.4-2.93,16.73-5.7,21.15c-0.41,0.66-1.34,2.15-2.9,2.42c-1.21,0.21-2.25-0.42-2.9-0.83
	c-3.54-2.25-7.37-5.94-8.84-7.39c2.03,0.76,3.62,1.51,4.72,2.07c2.53,1.29,3.84,2.33,5.5,1.86c0.37-0.1,1.05-0.3,1.68-0.9
	c2.06-1.92,1.82-6.29,1.76-7.67c-0.24-5.55-0.13-22.74,0-46.65h6.75C47.89,27.36,47.86,39.33,47.84,51.31z"/>
<path class="st0" d="M77.36,14.75c0,0.93-1.25,1.69-2.79,1.69H40.4H13.17c-1.54,0-2.79-0.76-2.79-1.69v-2.16
	c0-0.93,1.25-1.69,2.79-1.69h61.4c1.54,0,2.79,0.76,2.79,1.69V14.75z"/>
<path class="st0" d="M41.15,50.5c-0.03,1.12-0.1,2.67-0.28,4.53c-0.22,2.31-0.37,3.84-0.89,5.7c-0.78,2.77-1.16,4.15-2.29,5.03
	c-1.22,0.95-2.57,0.89-8.5,0.34c-1.64-0.15-3.78-0.36-6.32-0.62c1.99,1.53,4.08,3.25,6.21,5.2c2.92,2.67,5.43,5.31,7.58,7.8
	c0.16,0.11,0.38,0.24,0.67,0.35c0.32,0.12,0.74,0.23,1.23,0.21c0.8-0.03,1.39-0.38,1.68-0.56c2.46-1.52,3.8-4.03,3.8-4.03
	c2.3-4.32,3.07-9.36,3.16-9.96c0.47-3.24,0.89-7.74,0.65-13.19C45.61,51.04,43.38,50.77,41.15,50.5z"/>
<polygon class="st0" points="41.29,49.94 41.29,53.68 47.59,52.04 47.55,50.35 "/>
</svg>
