<?xml version="1.0" encoding="utf-8"?>
<!-- Generator: Adobe Illustrator 23.0.2, SVG Export Plug-In . SVG Version: 6.00 Build 0)  -->
<svg version="1.1" id="Слой_1" xmlns="http://www.w3.org/2000/svg" xmlns:xlink="http://www.w3.org/1999/xlink" x="0px" y="0px"
	 viewBox="0 0 85.04 85.04" style="enable-background:new 0 0 85.04 85.04;" xml:space="preserve">
<style type="text/css">
	.st0{fill:#9E3116;}
</style>
<path class="st0" d="M5.71,36.66v2.68c0,0.91,1.18,1.65,2.64,1.65h4.59h33.47h28.61c1.46,0,2.64-0.74,2.64-1.65v-2.68
	c0-0.91-1.18-1.65-2.64-1.65H8.35C6.89,35,5.71,35.74,5.71,36.66z"/>
<path class="st0" d="M40.31,78.97h3.12c1.06,0,1.92-0.72,1.92-1.61v-2.81V54.1V36.61c0-0.89-0.86-1.61-1.92-1.61h-3.12
	c-1.06,0-1.92,0.72-1.92,1.61v40.74C38.39,78.25,39.25,78.97,40.31,78.97z"/>
<path class="st0" d="M15.27,18.17v2.8c0,0.95,0.83,1.73,1.86,1.73h3.25h23.67h20.23c1.03,0,1.86-0.77,1.86-1.73v-2.8
	c0-0.95-0.83-1.73-1.86-1.73H17.14C16.11,16.45,15.27,17.22,15.27,18.17z"/>
<path class="st0" d="M40.36,47.46h3.08c1.05,0,1.9-0.69,1.9-1.54v-2.69v-19.6V6.88c0-0.85-0.85-1.54-1.9-1.54h-3.08
	c-1.05,0-1.9,0.69-1.9,1.54v39.04C38.46,46.77,39.31,47.46,40.36,47.46z"/>
<path class="st0" d="M60.33,35.55c1.93,0.03,3.26,0.21,4.14,0.38c0.32,0.06,1.19,0.23,2.41,0.38c0.46,0.05,0.91,0.11,1.37,0.13
	c1.39,0.07,2.43,0.12,3.26-0.34c0.89-0.49,1.36-1.73,2.27-4.22c0.31-0.86,0.72-1.98,1.19-3.31c0.39,1.31,0.87,2.71,1.46,4.17
	c0.82,2.01,1.71,3.8,2.61,5.38c0.02,0.1,0.04,0.24,0.04,0.41c-0.01,0.19-0.05,0.42-0.18,0.66c-0.21,0.4-0.73,0.73-0.73,0.74
	c-0.82,0.52-1.91,0.87-2.19,0.96c-0.73,0.03-1.75,0.06-2.99,0.06c-1.84-0.01-3.2-0.01-4.92-0.26c-0.83-0.12-1.98-0.32-3.33-0.71l0,0
	c-1.14-0.27-1.99-0.54-3-0.87c-1.31-0.43-2.46-0.84-3.37-1.17C59.03,37.14,59.68,36.34,60.33,35.55z"/>
<path class="st0" d="M49.93,17.04c1.81,0.12,3.11,0.32,3.99,0.49c0.34,0.06,1.21,0.24,2.41,0.38c0.46,0.05,0.91,0.11,1.37,0.13
	c1.39,0.07,2.43,0.12,3.26-0.34c0.89-0.49,1.36-1.73,2.27-4.22c0.31-0.86,0.72-1.98,1.19-3.31c0.39,1.31,0.87,2.71,1.46,4.17
	c0.82,2.01,1.71,3.8,2.61,5.38c0.02,0.1,0.04,0.24,0.04,0.41c-0.01,0.19-0.05,0.42-0.18,0.66c-0.23,0.43-0.73,0.73-0.73,0.74
	c-1.6,0.97-3.06,1.16-3.06,1.16c-1.74,0.22-5.52-0.04-10.38-1.11l0,0c-1.14-0.27-1.99-0.54-3-0.87c-1.31-0.43-2.46-0.84-3.37-1.17
	C48.53,18.7,49.23,17.87,49.93,17.04z"/>
<path class="st0" d="M55.97,49.88c1.54,2.05,3,3.61,4.14,4.72c0.5,0.49,1.54,1.48,2.95,2.62c0.78,0.63,1.17,0.95,1.68,1.29
	c1.06,0.7,2.84,1.94,4.58,1.91c1.55-0.03,3.09-1.38,6.13-4.12c1.05-0.94,2.42-2.19,4.02-3.66c-0.45,2.08-0.84,4.34-1.13,6.77
	c-0.39,3.34-0.52,6.45-0.49,9.27c-0.04,0.15-0.12,0.36-0.25,0.59c-0.15,0.25-0.38,0.54-0.73,0.77c-0.57,0.39-1.2,0.45-1.51,0.47
	c-2.67,0.22-5.13-0.83-5.13-0.83c-6.64-2.83-12.71-8.84-12.76-8.89l0,0c-0.36-0.33-0.69-0.65-1.01-0.95
	c-0.98-0.96-1.84-1.87-2.33-2.43c-1.61-1.84-2.88-4.01-3.42-4.96C52.47,51.6,54.22,50.74,55.97,49.88z"/>
<path class="st0" d="M49.55,35.65c0.22,1.44,0.66,3.47,1.61,5.78c0.24,0.59,0.57,1.3,1.12,2.36c1.11,2.11,3.14,5.93,6.98,9.91
	c1.02,1.06,2.5,2.48,4.48,4c4.32,4.08,8.63,8.16,12.95,12.24c-4.22-1.04-18.37-5.1-27.44-18.91c-3.88-5.91-5.59-11.73-6.4-15.87
	C45.09,35.31,47.32,35.48,49.55,35.65z"/>
<path class="st0" d="M23.58,55.33c-4.09,3.98-6.47,5.38-8.81,7.08c-1.12,0.82-2.24,1.59-3.34,2.33c-0.93,0.63-1.25,2.04-0.74,3.32
	c0.05,0.13,0.1,0.26,0.15,0.39c0.61,1.55,2.16,2.3,3.31,1.57c2.29-1.44,4.67-3.11,7.1-5.03c2.75-2.18,2.13-1.66,4.28-3.63
	c1.86-1.7,4.61-4.25,7.54-8.07c2-2.61,3.72-4.89,4.95-8.37c0.34-0.97,0.51-1.68,0.57-1.99c0.25-1.3,0.08-1.67,0.09-4.01
	c0.01-2.16,0.15-3.4-0.41-3.66c-0.65-0.3-1.32-0.1-1.32-0.1c-0.01,0-0.01,0-0.02,0c-0.78,0.23-1.27,1.24-1.27,1.24
	c-0.72,1.39-3.61,7.91-3.61,7.91c-0.8,1.81-1.67,2.98-3.41,5.31C28.11,50.31,26.36,52.62,23.58,55.33z"/>
</svg>
