<?xml version="1.0" encoding="utf-8"?>
<!-- Generator: Adobe Illustrator 23.0.2, SVG Export Plug-In . SVG Version: 6.00 Build 0)  -->
<svg version="1.1" id="Слой_1" xmlns="http://www.w3.org/2000/svg" xmlns:xlink="http://www.w3.org/1999/xlink" x="0px" y="0px"
	 viewBox="0 0 85.04 85.04" style="enable-background:new 0 0 85.04 85.04;" xml:space="preserve">
<style type="text/css">
	.st0{fill:#E30613;}
</style>
<path class="st0" d="M9.33,46.35v2.54c0,0.87,1.12,1.57,2.5,1.57h4.35H47.9h27.11c1.38,0,2.5-0.7,2.5-1.57v-2.54
	c0-0.87-1.12-1.57-2.5-1.57H11.83C10.45,44.78,9.33,45.48,9.33,46.35z"/>
<path class="st0" d="M42.11,83.04h2.95c1.01,0,1.82-0.63,1.82-1.4V79.2V61.4V46.18c0-0.77-0.81-1.4-1.82-1.4h-2.95
	c-1.01,0-1.82,0.63-1.82,1.4v35.45C40.29,82.41,41.11,83.04,42.11,83.04z"/>
<path class="st0" d="M24.14,18.3v2.65c0,0.9,0.79,1.64,1.77,1.64h3.08h22.43h19.17c0.98,0,1.77-0.73,1.77-1.64V18.3
	c0-0.9-0.79-1.64-1.77-1.64H25.9C24.93,16.67,24.14,17.4,24.14,18.3z"/>
<path class="st0" d="M42.16,56.59h2.92c1,0,1.8-0.66,1.8-1.46v-2.55V34.01V18.13c0-0.81-0.81-1.46-1.8-1.46h-2.92
	c-1,0-1.8,0.66-1.8,1.46v37C40.36,55.93,41.17,56.59,42.16,56.59z"/>
<path class="st0" d="M61.11,44.61c0.99,0.34,2.35,0.75,3.9,1.05c1.02,0.2,1.89,0.31,2.28,0.36c0.44,0.05,0.86,0.1,1.29,0.12
	c1.31,0.07,2.3,0.12,3.09-0.32c0.84-0.47,1.29-1.64,2.15-4c0.3-0.81,0.68-1.88,1.13-3.14c0.37,1.24,0.82,2.56,1.38,3.95
	c0.77,1.9,1.63,3.6,2.48,5.1c0.02,0.1,0.04,0.23,0.04,0.39c-0.01,0.18-0.05,0.4-0.17,0.63c-0.2,0.38-0.53,0.59-0.69,0.7
	c-1.41,0.9-3.07,1.06-3.07,1.06c-4.49,0.44-9.62-1-9.66-1.01l0,0c-1.08-0.26-1.88-0.51-2.84-0.83c-1.24-0.41-2.33-0.8-3.19-1.11
	C59.86,46.57,60.49,45.59,61.11,44.61z"/>
<path class="st0" d="M56.86,16.64c0.99,0.34,2.35,0.75,3.9,1.05c1.02,0.2,1.89,0.31,2.28,0.36c0.44,0.05,0.86,0.1,1.29,0.12
	c1.31,0.07,2.3,0.12,3.09-0.32c0.84-0.47,1.29-1.64,2.15-4c0.3-0.81,0.68-1.88,1.13-3.14c0.37,1.24,0.82,2.56,1.38,3.95
	c0.77,1.9,1.63,3.6,2.48,5.1c0.02,0.1,0.04,0.23,0.04,0.39c-0.01,0.18-0.05,0.4-0.17,0.63c-0.2,0.38-0.53,0.59-0.69,0.7
	c-1.41,0.9-3.07,1.06-3.07,1.06c-4.49,0.44-9.62-1-9.66-1.01l0,0c-1.08-0.26-1.88-0.51-2.84-0.83c-1.24-0.41-2.33-0.8-3.19-1.11
	C55.61,18.61,56.24,17.62,56.86,16.64z"/>
<path class="st0" d="M20.78,17.15c1.33-3.04,1.79-5.45,2.55-9.35c0.23-1.15,0.41-2.27,0.57-3.36c0.13-0.93,1.53-1.86,3.3-2.21
	c0.18-0.04,0.36-0.07,0.54-0.11c2.14-0.42,3.94,0.19,3.83,1.31c-0.22,2.22-0.62,4.62-1.29,7.18c-0.42,1.61-0.91,3.15-1.46,4.64
	c-1.49,4.07-3.77,7.25-4.81,8.7c-0.68,0.96-2.61,3.58-5.87,6.91c-1.86,1.9-3.73,3.61-5.5,5.11c-1.33,1.13-3.93,1.63-5.47,1.04l0,0
	c-1.18-0.45-1.33-1.4-0.33-2.27c2.28-1.98,4.77-4.36,7.11-7.1C18.29,22.56,20.16,18.57,20.78,17.15z"/>
</svg>
