<?xml version="1.0" encoding="utf-8"?>
<!-- Generator: Adobe Illustrator 23.0.2, SVG Export Plug-In . SVG Version: 6.00 Build 0)  -->
<svg version="1.1" id="Слой_1" xmlns="http://www.w3.org/2000/svg" xmlns:xlink="http://www.w3.org/1999/xlink" x="0px" y="0px"
	 viewBox="0 0 85.04 85.04" style="enable-background:new 0 0 85.04 85.04;" xml:space="preserve">
<style type="text/css">
	.st0{fill:#403C3D;}
</style>
<path class="st0" d="M15.56,18.6v2.7c0,0.92,0.89,1.66,1.99,1.66h3.47h25.32h21.64c1.1,0,1.99-0.74,1.99-1.66v-2.7
	c0-0.92-0.89-1.66-1.99-1.66H17.56C16.45,16.93,15.56,17.68,15.56,18.6z"/>
<path class="st0" d="M9.64,42.95v2.7c0,0.92,1.08,1.66,2.41,1.66h4.2h30.59h26.15c1.33,0,2.41-0.74,2.41-1.66v-2.7
	c0-0.92-1.08-1.66-2.41-1.66H12.05C10.72,41.28,9.64,42.03,9.64,42.95z"/>
<path class="st0" d="M15.56,59.79v2.7c0,0.92,0.88,1.66,1.98,1.66h3.44h25.08H67.5c1.09,0,1.98-0.74,1.98-1.66v-2.7
	c0-0.92-0.88-1.66-1.98-1.66H17.54C16.45,58.12,15.56,58.87,15.56,59.79z"/>
<path class="st0" d="M32.63,38.54c0.17,0.08,0.5,0.18,0.82,0.04c0.53-0.24,0.88-1.07,0.65-1.99c-0.19-1.01-0.44-2.07-0.75-3.18
	c-0.64-2.27-1.43-4.22-2.22-5.87c-0.89-1.66-2.65-2.31-4.04-1.72c-1.26,0.54-1.76,1.91-1.84,2.14c-0.08,0.65-0.14,1.85,0.29,3.2
	c0.41,1.3,1.09,2.15,1.51,2.6c0.61,0.73,1.34,1.51,2.2,2.29C30.44,37.11,31.6,37.92,32.63,38.54z"/>
<path class="st0" d="M41.17,81.85h2.7c0.92,0,1.66-0.67,1.66-1.49v-2.59V58.9V42.77c0-0.82-0.74-1.49-1.66-1.49h-2.7
	c-0.92,0-1.66,0.67-1.66,1.49v37.59C39.51,81.18,40.25,81.85,41.17,81.85z"/>
<path class="st0" d="M37.78,3.31C37.62,3.23,37.31,3.12,37,3.25c-0.5,0.2-0.83,0.97-0.63,1.84c0.18,0.95,0.4,1.95,0.69,3
	c0.59,2.14,1.32,3.99,2.06,5.56c0.83,1.58,2.49,2.24,3.8,1.74c1.19-0.46,1.67-1.72,1.74-1.94c0.08-0.61,0.14-1.72-0.26-3
	C44.03,9.21,43.39,8.39,43,7.96c-0.57-0.7-1.25-1.45-2.06-2.21C39.83,4.72,38.74,3.92,37.78,3.31z"/>
<path class="st0" d="M47.79,41.77c1.01-0.72,2.35-1.74,3.72-3.01c0.9-0.84,1.61-1.6,1.93-1.94c0.35-0.38,0.7-0.76,1.02-1.16
	c0.98-1.21,1.71-2.13,1.84-3.19c0.14-1.14-0.68-2.38-2.34-4.85c-0.57-0.85-1.33-1.96-2.23-3.27c1.45,0.51,3.03,0.99,4.75,1.42
	c2.36,0.58,4.59,0.94,6.62,1.17c0.11,0.04,0.25,0.12,0.4,0.23c0.17,0.13,0.35,0.32,0.48,0.6c0.22,0.45,0.2,0.92,0.19,1.15
	c-0.11,1.97-1.12,3.68-1.12,3.68c-2.7,4.62-7.64,8.54-7.68,8.57l0,0c-0.99,0.86-1.8,1.45-2.77,2.15c-1.26,0.9-2.39,1.68-3.28,2.29
	C48.8,44.33,48.3,43.05,47.79,41.77z"/>
</svg>
