<?xml version="1.0" encoding="utf-8"?>
<!-- Generator: Adobe Illustrator 23.0.2, SVG Export Plug-In . SVG Version: 6.00 Build 0)  -->
<svg version="1.1" id="Слой_1" xmlns="http://www.w3.org/2000/svg" xmlns:xlink="http://www.w3.org/1999/xlink" x="0px" y="0px"
	 viewBox="0 0 85.04 85.04" style="enable-background:new 0 0 85.04 85.04;" xml:space="preserve">
<style type="text/css">
	.st0{fill:#403C3D;}
</style>
<path class="st0" d="M14.16,17.65v2.65c0,0.9,1.06,1.64,2.37,1.64h4.13h30.11H76.5c1.31,0,2.37-0.73,2.37-1.64v-2.65
	c0-0.9-1.06-1.64-2.37-1.64H16.53C15.22,16.01,14.16,16.75,14.16,17.65z"/>
<path class="st0" d="M13.36,47c0.46-5.9,0.76-12.27,0.82-19.05c0.01-1.69,0.01-3.36,0-5c0-0.47-0.01-0.89-0.02-1.72
	c-0.01-1.16-0.01-1.74,0.02-1.85c0.36-1.25,1.74-1.96,2.81-2.14c0.03,0,0.05-0.01,0.07-0.01c2.01-0.31,3.88,1.6,3.96,4.08
	c0.15,4.55,0.16,9.41-0.03,14.52c-0.12,3.28-0.32,6.41-0.58,9.39c-0.47,4.84-1.34,10.67-2.99,17.04c-1.42,5.49-3.1,10.17-4.73,14.02
	c-0.72,1.7-2.33,2.53-3.88,1.97l-0.08-0.03c-2.18-0.78-3.24-3.84-2.11-6.15c1.48-3.04,2.99-6.77,4.24-11.21
	C12.32,55.65,13.02,50.86,13.36,47z"/>
<polygon class="st0" points="47.08,21.69 19.47,21.69 19.47,16.26 51.82,16.26 "/>
<path class="st0" d="M39.57,5.66c-0.18,0-0.5,0.02-0.72,0.26c-0.37,0.38-0.36,1.21,0.18,1.9c0.54,0.78,1.14,1.59,1.82,2.42
	c1.39,1.68,2.79,3.06,4.08,4.16c1.38,1.08,3.14,1.02,4.11,0.04c0.88-0.89,0.81-2.22,0.79-2.44c-0.18-0.57-0.57-1.6-1.44-2.59
	c-0.84-0.95-1.74-1.43-2.26-1.66c-0.79-0.4-1.71-0.8-2.74-1.15C41.97,6.1,40.68,5.82,39.57,5.66z"/>
<path class="st0" d="M58.68,64.11c1.05,0.91,2.52,2.1,4.26,3.26c1.15,0.76,2.17,1.34,2.63,1.59c0.51,0.28,1.01,0.56,1.53,0.81
	c1.58,0.74,2.77,1.3,3.96,1.16c1.28-0.15,2.42-1.37,4.67-3.83c0.77-0.85,1.79-1.96,2.98-3.29c-0.18,1.71-0.29,3.57-0.29,5.55
	c-0.01,2.73,0.18,5.25,0.47,7.52c-0.02,0.13-0.06,0.3-0.15,0.49c-0.1,0.22-0.26,0.46-0.53,0.68c-0.44,0.36-0.95,0.46-1.2,0.51
	c-2.18,0.39-4.31-0.25-4.31-0.25c-5.75-1.73-11.32-6.08-11.36-6.12l0,0c-1.19-0.86-2.06-1.58-3.07-2.45
	c-1.32-1.13-2.46-2.16-3.36-2.97C56.15,65.89,57.42,65,58.68,64.11z"/>
<path class="st0" d="M51.3,50.14c0.17,1.32,0.54,3.21,1.43,5.32c1.16,2.75,2.63,4.52,4.03,6.19c1.44,1.71,3.67,4.03,6.88,6.29
	c3.42,3.55,6.85,7.09,10.27,10.64c-3.5-0.84-15.24-4.13-22.76-15.34c-3.22-4.79-4.64-9.51-5.31-12.87
	C47.67,50.29,49.48,50.21,51.3,50.14z"/>
<path class="st0" d="M27.05,28.92c0.28-0.47,0.73-0.71,1.19-0.71h40.89c0.46,0,0.91,0.24,1.19,0.71c1.33,2.22,0.12,4.66-1.53,4.66
	H28.58C26.92,33.58,25.71,31.13,27.05,28.92z"/>
<path class="st0" d="M27.05,50.8c0.28-0.47,0.73-0.71,1.19-0.71h40.89c0.46,0,0.91,0.24,1.19,0.71c1.33,2.22,0.12,4.66-1.53,4.66
	H28.58C26.92,55.46,25.71,53.02,27.05,50.8z"/>
<path class="st0" d="M70.18,28.54c0.47,0.17,0.71,0.45,0.71,0.73v25.11c0,0.28-0.24,0.56-0.71,0.73c-2.22,0.82-4.66,0.08-4.66-0.94
	V29.48C65.52,28.46,67.97,27.72,70.18,28.54z"/>
<path class="st0" d="M23.97,39.75c0.35-0.47,0.92-0.71,1.49-0.71h51.2c0.57,0,1.14,0.24,1.49,0.71c1.67,2.22,0.15,4.66-1.92,4.66
	H25.89C23.82,44.41,22.3,41.96,23.97,39.75z"/>
<path class="st0" d="M50.66,24.02c0.47,0.22,0.71,0.58,0.71,0.95v32.49c0,0.36-0.24,0.72-0.71,0.95C48.44,59.46,46,58.5,46,57.18
	V25.23C46,23.92,48.44,22.96,50.66,24.02z"/>
<path class="st0" d="M37.57,65.55c-3.69,3.67-5.85,4.95-7.97,6.51c-1.02,0.75-2.03,1.46-3.02,2.13c-0.84,0.57-1.12,1.88-0.65,3.08
	c0.05,0.12,0.1,0.24,0.14,0.37c0.57,1.45,1.99,2.16,3.03,1.49c2.07-1.32,4.23-2.85,6.42-4.61c2.49-2,1.93-1.52,3.87-3.34
	c1.68-1.57,4.16-3.91,6.8-7.44c1.8-2.4,3.35-4.52,4.44-7.73c0.3-0.9,0.45-1.56,0.5-1.84c0.21-1.21,0.06-1.55,0.04-3.73
	c-0.01-2.01,0.11-3.16-0.41-3.41c-0.59-0.28-1.21-0.11-1.21-0.11c-0.01,0-0.01,0-0.02,0c-0.71,0.21-1.15,1.14-1.15,1.14
	c-0.64,1.29-3.22,7.32-3.22,7.32c-0.72,1.68-1.5,2.75-3.06,4.91C41.67,60.92,40.09,63.05,37.57,65.55z"/>
</svg>
