<?xml version="1.0" encoding="utf-8"?>
<!-- Generator: Adobe Illustrator 23.0.2, SVG Export Plug-In . SVG Version: 6.00 Build 0)  -->
<svg version="1.1" id="Слой_1" xmlns="http://www.w3.org/2000/svg" xmlns:xlink="http://www.w3.org/1999/xlink" x="0px" y="0px"
	 viewBox="0 0 85.04 85.04" style="enable-background:new 0 0 85.04 85.04;" xml:space="preserve">
<style type="text/css">
	.st0{fill:#403C3D;}
</style>
<path class="st0" d="M44,81.4h-0.52c-1.37,0-2.49-1.11-2.49-2.49V21.4c0-1.37,1.11-2.49,2.49-2.49H44c1.37,0,2.49,1.11,2.49,2.49
	v57.51C46.49,80.29,45.38,81.4,44,81.4z"/>
<rect x="40.2" y="29.19" transform="matrix(-1.836970e-16 1 -1 -1.836970e-16 97.4219 12.0496)" class="st0" width="4.98" height="51.09"/>
<path class="st0" d="M14.72,21.4L14.72,21.4c0-1.37,1.11-2.49,2.49-2.49h53.07c1.37,0,2.49,1.11,2.49,2.49v0
	c0,1.37-1.11,2.49-2.49,2.49H17.21C15.84,23.89,14.72,22.78,14.72,21.4z"/>
<path class="st0" d="M44,81.4h-0.52c-1.37,0-2.49-1.11-2.49-2.49V9.93c0-1.37,1.11-2.49,2.49-2.49H44c1.37,0,2.49,1.11,2.49,2.49
	v68.99C46.49,80.29,45.38,81.4,44,81.4z"/>
<path class="st0" d="M8.53,21.4L8.53,21.4c0-1.37,1.11-2.49,2.49-2.49h64.53c1.37,0,2.49,1.11,2.49,2.49v0
	c0,1.37-1.11,2.49-2.49,2.49H11.01C9.64,23.89,8.53,22.78,8.53,21.4z"/>
<rect x="41.26" y="29.61" transform="matrix(-1.836970e-16 1 -1 -1.836970e-16 98.4802 10.9912)" class="st0" width="4.98" height="50.25"/>
<path class="st0" d="M25.18,38.14V38c0-1.37,1.11-2.49,2.49-2.49h32.15c1.37,0,2.49,1.11,2.49,2.49v0.14c0,1.37-1.11,2.49-2.49,2.49
	H27.67C26.29,40.63,25.18,39.51,25.18,38.14z"/>
<path class="st0" d="M70.83,45.57c-0.15,3.64,0.3,6.35,1,10.76c0.21,1.3,0.44,2.55,0.7,3.76c0.22,1.03-0.79,2.43-2.36,3.3
	c-0.16,0.09-0.32,0.18-0.48,0.27c-1.91,1.05-3.87,0.91-4.18-0.32c-0.62-2.45-1.11-5.14-1.41-8.07c-0.19-1.84-0.29-3.65-0.31-5.39
	c-0.07-4.79,0.95-8.85,1.41-10.7c0.31-1.22,1.19-4.58,3.1-9.08c1.09-2.57,2.26-4.93,3.41-7.04c0.86-1.58,3.19-2.86,4.89-2.66l0,0
	c1.31,0.15,1.8,1.13,1.16,2.35c-1.47,2.77-2.98,6.03-4.22,9.63C71.22,39.06,70.9,43.87,70.83,45.57z"/>
<path class="st0" d="M14.28,37.74c-1.29-3.39-2.77-5.7-5.15-9.47c-0.7-1.11-1.41-2.16-2.12-3.17c-0.6-0.86-0.23-2.54,0.87-3.95
	c0.11-0.14,0.22-0.29,0.34-0.43c1.33-1.71,3.19-2.34,3.95-1.34c1.53,2,3.04,4.27,4.47,6.84c0.9,1.62,1.7,3.23,2.41,4.81
	c1.95,4.36,2.61,8.48,2.91,10.35c0.2,1.24,0.71,4.66,0.73,9.53c0.01,2.78-0.13,5.4-0.36,7.78c-0.17,1.79-1.8,3.86-3.43,4.35h0
	c-1.25,0.37-2.1-0.33-1.98-1.7c0.25-3.11,0.36-6.69,0.08-10.48C16.48,43.86,14.89,39.33,14.28,37.74z"/>
<path class="st0" d="M41.04,23.2c0.25-1.2,0.54-2.83,0.67-4.66c0.09-1.21,0.1-2.24,0.1-2.7c0-0.51,0-1.01-0.04-1.52
	c-0.11-1.53-0.19-2.68-0.8-3.53c-0.66-0.91-2.08-1.27-4.93-1.94c-0.98-0.23-2.27-0.53-3.79-0.87c1.39-0.6,2.86-1.31,4.38-2.15
	c2.09-1.16,3.95-2.38,5.56-3.58c0.11-0.04,0.26-0.08,0.44-0.1c0.21-0.02,0.47,0,0.75,0.11c0.46,0.18,0.76,0.53,0.9,0.71
	c1.24,1.5,1.65,3.41,1.65,3.41c1.13,5.14,0.18,11.28,0.17,11.33l0,0c-0.15,1.28-0.33,2.25-0.56,3.4c-0.3,1.49-0.6,2.81-0.84,3.85
	C43.49,24.38,42.26,23.79,41.04,23.2z"/>
</svg>
