<?xml version="1.0" encoding="utf-8"?>
<!-- Generator: Adobe Illustrator 23.0.2, SVG Export Plug-In . SVG Version: 6.00 Build 0)  -->
<svg version="1.1" id="Слой_1" xmlns="http://www.w3.org/2000/svg" xmlns:xlink="http://www.w3.org/1999/xlink" x="0px" y="0px"
	 viewBox="0 0 85.04 85.04" style="enable-background:new 0 0 85.04 85.04;" xml:space="preserve">
<style type="text/css">
	.st0{fill:#3AAA35;}
</style>
<path class="st0" d="M49.83,77.82h2.86c0.97,0,1.76-1.09,1.76-2.44v-4.25V40.18V13.71c0-1.35-0.79-2.44-1.76-2.44h-2.86
	c-0.97,0-1.76,1.09-1.76,2.44v61.66C48.07,76.73,48.85,77.82,49.83,77.82z"/>
<path class="st0" d="M76.96,15.76v-2.77c0-0.94-0.47-1.71-1.06-1.71h-1.84H60.61H49.13c-0.58,0-1.06,0.77-1.06,1.71v2.77
	c0,0.94,0.47,1.71,1.06,1.71H75.9C76.48,17.47,76.96,16.7,76.96,15.76z"/>
<path class="st0" d="M72.24,58.09h2.92c0.16-0.22,0.33-0.43,0.5-0.65c0.25-0.32,0.5-0.63,0.74-0.93c0.14-1.48,0.28-2.97,0.42-4.45
	c0.05-6.81,0.1-13.63,0.14-20.44V13c0-0.95-0.81-1.72-1.8-1.72h-2.92c-0.99,0-1.8,0.77-1.8,1.72c0.02,14.59,0.03,29.17,0.05,43.76
	c0.06,0.19,0.19,0.53,0.48,0.83C71.48,58.11,72.09,58.1,72.24,58.09z"/>
<path class="st0" d="M72.04,44.06c-0.02,0.93-0.07,2.21-0.2,3.75c-0.16,1.91-0.27,3.18-0.65,4.72c-0.56,2.29-0.85,3.43-1.67,4.16
	c-0.88,0.79-1.87,0.74-6.18,0.28c-1.19-0.13-2.75-0.3-4.59-0.51c1.45,1.26,2.97,2.69,4.51,4.3c2.12,2.21,3.95,4.4,5.51,6.45
	c0.11,0.09,0.28,0.2,0.49,0.29c0.24,0.1,0.54,0.19,0.9,0.17c0.58-0.02,1.01-0.32,1.22-0.46c1.79-1.25,2.76-3.33,2.76-3.33
	c1.67-3.57,2.23-7.74,2.29-8.24c0.34-2.68,0.64-6.4,0.47-10.91C75.29,44.5,73.66,44.28,72.04,44.06z"/>
<path class="st0" d="M41.21,46.03C41.21,46.03,41.21,46.03,41.21,46.03c0,0.02,0,0.04,0,0.24c0,1.04,0,1.59,0,2
	c0,1.96,0.19,4.48-0.04,6.62c-0.17,1.6-0.54,2.73-0.99,4.08c-0.57,1.72-1.57,4.18-3.41,6.85c-0.21,0.3-0.45,0.64-0.74,1.01
	c-1.19,1.55-2.34,2.66-3.28,3.56c-0.66,0.62-3.51,3.63-8.7,5.89c-4.59,2-8.98,2.57-12.19,2.66c-1.86,0.05-3.39-1.25-3.39-2.87
	c0-1.43,1.2-2.64,2.84-2.84c4.9-0.58,8.21-1.65,10.85-3.04c1.4-0.74,2.58-1.46,3.69-2.27c0.55-0.4,1.75-1.29,2.99-2.55
	c0.85-0.86,2.82-2.9,4.18-6.12c1.44-3.39,1.52-6.46,1.57-8.75c0.02-0.62,0.01-1.14,0-1.5c0-0.1,0-0.19,0-0.29
	c0.16-0.07,0.36-0.2,0.51-0.42c0.32-0.5,0.11-1.14,0-1.58c-0.03-0.14-0.53-2.25,0.08-2.96C36.32,42.45,41.2,45.86,41.21,46.03z"/>
<path class="st0" d="M36.42,55.13h2.96c1.01,0,1.82-0.52,1.82-1.16v-2.02V37.24V24.67c0-0.64-0.82-1.16-1.82-1.16h-2.96
	c-1.01,0-1.82,0.52-1.82,1.16v29.3C34.6,54.61,35.42,55.13,36.42,55.13z"/>
<path class="st0" d="M39.56,37c-0.24-1.11-0.52-2.63-0.67-4.33c-0.1-1.12-0.13-2.07-0.13-2.5c-0.01-0.47-0.02-0.94,0-1.4
	c0.06-1.42,0.11-2.48,0.63-3.26c0.56-0.83,1.78-1.14,4.23-1.71c0.84-0.2,1.95-0.45,3.26-0.74c-1.21-0.58-2.5-1.26-3.83-2.08
	c-1.83-1.11-3.46-2.28-4.88-3.42c-0.09-0.04-0.22-0.08-0.38-0.1c-0.18-0.02-0.4-0.01-0.65,0.09c-0.4,0.16-0.65,0.48-0.77,0.64
	c-1.04,1.37-1.37,3.13-1.37,3.13c-0.13,0.58-0.3,1.41-0.39,2.43c-0.05,0.57-0.11,1.51,0.01,3.61c0.07,1.15,0.19,2.66,0.43,4.46
	c0,0,0,0,0,0c0.15,1.19,0.33,2.09,0.55,3.16c0.29,1.39,0.57,2.61,0.8,3.58C37.47,38.04,38.52,37.52,39.56,37z"/>
<path class="st0" d="M10.34,63.9c8.04-3.01,16.07-6.02,24.11-9.03c0.53-1.93,1.05-3.86,1.58-5.78c-9.74,2.33-19.47,4.65-29.21,6.98
	C7.99,58.68,9.16,61.29,10.34,63.9z"/>
<path class="st0" d="M16.57,58.09h2.51c0.85,0,1.55-0.74,1.55-1.65v-2.88V32.59V14.67c0-0.91-0.69-1.65-1.55-1.65h-2.51
	c-0.85,0-1.55,0.74-1.55,1.65v41.77C15.03,57.35,15.72,58.09,16.57,58.09z"/>
<path class="st0" d="M33.67,10.89c2.46-0.96,4.1-2.06,6.79-3.82C41.24,6.55,42,6.02,42.71,5.5c0.61-0.45,1.87-0.19,2.96,0.61
	c0.11,0.08,0.22,0.16,0.33,0.24c1.32,0.96,1.87,2.32,1.16,2.88c-1.42,1.13-3.03,2.24-4.88,3.31c-1.16,0.67-2.32,1.26-3.46,1.79
	c-3.14,1.45-6.17,1.96-7.54,2.19c-0.91,0.15-3.42,0.54-7.03,0.59c0,0-2.31,0.12-5.78-0.21c-0.18-0.02-3.35-0.34-3.48-1.28
	c0-0.02,0-0.18,0-0.49c0-0.85,0.03-1.03,0.06-1.16c0.06-0.27,0.11-0.48,0.28-0.66c0.3-0.32,0.76-0.34,0.95-0.35
	c6.12-0.19,7.76,0,7.76,0C29.23,12.53,32.52,11.34,33.67,10.89z"/>
</svg>
