<?xml version="1.0" encoding="utf-8"?>
<!-- Generator: Adobe Illustrator 23.0.2, SVG Export Plug-In . SVG Version: 6.00 Build 0)  -->
<svg version="1.1" id="Слой_1" xmlns="http://www.w3.org/2000/svg" xmlns:xlink="http://www.w3.org/1999/xlink" x="0px" y="0px"
	 viewBox="0 0 85.04 85.04" style="enable-background:new 0 0 85.04 85.04;" xml:space="preserve">
<style type="text/css">
	.st0{fill:#405EA9;}
</style>
<path class="st0" d="M46.83,54.44c0.03,0.38,0.07,2.08,0.07,4.35c0,0,0,0,0,0c0,0.02-0.42,7.35-5.39,14.86
	c-0.52,0.78-1.36,1.97-2.71,2.2c-1.13,0.19-2.11-0.38-2.71-0.75c-3.31-2.05-6.89-5.39-8.26-6.71c1.9,0.69,3.38,1.37,4.41,1.88
	c2.36,1.17,3.59,2.12,5.14,1.69c0.34-0.09,0.98-0.27,1.57-0.82c2.02-1.84,1.72-5.8,1.65-6.97c-0.32-4.78-0.21-19.31,0.02-39.84
	c0.01-0.72,0.78-1.17,1.4-0.82l4.36,2.45c0.31,0.17,0.5,0.52,0.48,0.87C46.15,41.29,46.4,49.5,46.83,54.44z"/>
<path class="st0" d="M40.58,55.74c-0.03,0.92-0.09,2.21-0.26,3.74c-0.21,1.9-0.35,3.17-0.84,4.7c-0.72,2.28-1.09,3.42-2.14,4.15
	c-1.14,0.78-2.41,0.73-7.94,0.28c-1.53-0.13-3.54-0.3-5.9-0.51c1.86,1.26,3.81,2.68,5.8,4.29c2.73,2.2,5.08,4.38,7.09,6.43
	c0.15,0.09,0.36,0.2,0.63,0.29c0.3,0.1,0.69,0.19,1.15,0.17c0.74-0.02,1.3-0.31,1.57-0.46c2.3-1.25,3.55-3.32,3.55-3.32
	c2.15-3.56,2.87-7.72,2.95-8.21c0.44-2.67,0.83-6.38,0.6-10.88C44.75,56.19,42.66,55.96,40.58,55.74z"/>
<polygon class="st0" points="40.71,55.28 40.71,58.37 46.6,57.01 46.56,55.62 "/>
<path class="st0" d="M12.96,36.56v2.42c0,0.82,1.01,1.49,2.25,1.49h3.92h28.56H72.1c1.24,0,2.25-0.67,2.25-1.49v-2.42
	c0-0.82-1.01-1.49-2.25-1.49h-56.9C13.97,35.07,12.96,35.74,12.96,36.56z"/>
<path class="st0" d="M18.03,8.14c0.33-0.42,0.88-0.64,1.42-0.64h48.82c0.55,0,1.09,0.22,1.42,0.64c1.59,2.02,0.15,4.25-1.83,4.25
	H19.86C17.88,12.39,16.43,10.16,18.03,8.14z"/>
<path class="st0" d="M64.04,10.79c-0.2,1.14-0.55,2.68-1.22,4.34c-0.44,1.09-0.91,2-1.13,2.4c-0.24,0.45-0.48,0.89-0.77,1.32
	c-0.88,1.31-1.54,2.29-2.85,2.82c-1.4,0.57-3.65,0.37-8.15-0.05c-0.75-0.07-0.8-0.08-1.29-0.12c-2.35-0.19-4.26-0.16-5.5-0.1
	c0.79,0.41,1.86,0.98,3.1,1.67c1.22,0.68,2.37,1.36,3.02,1.75c1.3,0.79,3.56,2.27,6.56,4.8c0.14,0.07,0.34,0.16,0.6,0.24
	c0.3,0.09,0.69,0.16,1.16,0.17c0.76,0.01,1.36-0.2,1.66-0.3c2.52-0.88,4.04-2.41,4.04-2.41c4.1-4.12,5.61-9.85,5.62-9.9l0,0
	c0.39-1.18,0.58-2.1,0.78-3.19c0.26-1.42,0.45-2.68,0.59-3.68C68.19,10.62,66.11,10.71,64.04,10.79z"/>
</svg>
