<?xml version="1.0" encoding="utf-8"?>
<!-- Generator: Adobe Illustrator 23.0.2, SVG Export Plug-In . SVG Version: 6.00 Build 0)  -->
<svg version="1.1" id="Слой_1" xmlns="http://www.w3.org/2000/svg" xmlns:xlink="http://www.w3.org/1999/xlink" x="0px" y="0px"
	 viewBox="0 0 85.04 85.04" style="enable-background:new 0 0 85.04 85.04;" xml:space="preserve">
<style type="text/css">
	.st0{fill:#3AAA35;}
</style>
<path class="st0" d="M44.35,25.75L44.35,25.75c1.17,0,2.11,0.95,2.11,2.11v33.85c0,1.17-0.95,2.11-2.11,2.11h0
	c-1.17,0-2.11-0.95-2.11-2.11V27.86C42.23,26.7,43.18,25.75,44.35,25.75z"/>
<rect x="43.25" y="16.68" transform="matrix(6.123234e-17 -1 1 6.123234e-17 8.8517 81.4668)" class="st0" width="3.82" height="39.26"/>
<path class="st0" d="M66.64,61.92L66.64,61.92c0,1.06-0.86,1.91-1.91,1.91H23.96c-1.06,0-1.91-0.86-1.91-1.91v0
	c0-1.06,0.86-1.91,1.91-1.91h40.77C65.79,60.01,66.64,60.86,66.64,61.92z"/>
<path class="st0" d="M43.72,25.3h1.24c1.23,0,2.23,1,2.23,2.23v34.52c0,1.23-1,2.23-2.23,2.23h-1.24c-1.23,0-2.23-1-2.23-2.23V27.53
	C41.49,26.3,42.49,25.3,43.72,25.3z"/>
<path class="st0" d="M71.86,61.37L71.86,61.37c0,1.61-1.3,2.91-2.91,2.91H20.91c-1.61,0-2.91-1.3-2.91-2.91v0
	c0.48-0.66,1.11-1.38,1.91-2.1c0.34-0.3,0.68-0.57,1-0.81h48.04C70.56,58.46,71.86,59.76,71.86,61.37z"/>
<rect x="42.43" y="17" transform="matrix(6.123234e-17 -1 1 6.123234e-17 8.0385 80.6536)" class="st0" width="3.82" height="38.61"/>
<path class="st0" d="M58.61,49.22v0.36c0,1.14-0.93,2.07-2.07,2.07H32.15c-1.14,0-2.07-0.93-2.07-2.07v-0.36
	c0-1.14,0.93-2.07,2.07-2.07h24.38C57.68,47.15,58.61,48.07,58.61,49.22z"/>
<path class="st0" d="M23.54,43.35c0.12-2.8-0.23-4.88-0.77-8.27c-0.16-1-0.34-1.96-0.54-2.89c-0.17-0.79,0.61-1.87,1.82-2.54
	c0.12-0.07,0.25-0.14,0.37-0.2c1.47-0.81,2.98-0.7,3.21,0.25c0.47,1.88,0.85,3.95,1.08,6.2c0.15,1.42,0.22,2.8,0.24,4.14
	c0.06,3.68-0.73,6.8-1.09,8.22c-0.23,0.94-0.92,3.52-2.38,6.98c-0.84,1.97-1.74,3.79-2.62,5.41c-0.66,1.22-2.45,2.2-3.75,2.05h0
	c-1-0.11-1.38-0.87-0.89-1.81c1.13-2.13,2.29-4.63,3.25-7.4C23.23,48.35,23.48,44.65,23.54,43.35z"/>
<path class="st0" d="M67.31,49.62c1.04,2.65,2.22,4.46,4.12,7.4c0.56,0.87,1.12,1.69,1.69,2.49c0.48,0.67,0.21,1.97-0.64,3.06
	c-0.09,0.11-0.17,0.22-0.26,0.33c-1.02,1.31-2.47,1.79-3.08,1c-1.21-1.57-2.42-3.35-3.56-5.36c-0.72-1.26-1.36-2.52-1.93-3.76
	c-1.57-3.4-2.12-6.61-2.38-8.07c-0.17-0.96-0.6-3.63-0.67-7.41c-0.04-2.16,0.05-4.19,0.2-6.04c0.11-1.39,1.36-2.98,2.63-3.34h0
	c0.98-0.28,1.64,0.28,1.57,1.34c-0.17,2.41-0.21,5.19,0.05,8.13C65.53,44.85,66.82,48.39,67.31,49.62z"/>
<path class="st0" d="M61.1,23.71V26c0,0.92-0.75,1.66-1.66,1.66H29.24c-0.92,0-1.66-0.75-1.66-1.66v-2.29
	c0-0.92,0.75-1.66,1.66-1.66h30.19C60.35,22.04,61.1,22.79,61.1,23.71z"/>
<path class="st0" d="M74.72,15.73v1.52c0,0.92-0.75,1.66-1.66,1.66H15.62c-0.92,0-1.66-0.75-1.66-1.66v-1.52
	c0-0.92,0.75-1.66,1.66-1.66h57.43C73.97,14.07,74.72,14.81,74.72,15.73z"/>
<path class="st0" d="M64.69,17.59c0.89-0.04,2.11-0.05,3.46,0.12c0.89,0.11,1.64,0.27,1.98,0.35c0.38,0.09,0.74,0.17,1.11,0.28
	c1.11,0.35,1.95,0.62,2.53,1.35c0.62,0.78,0.79,2.2,1.08,5.05c0.1,0.98,0.23,2.26,0.38,3.78c0.53-1.23,1.15-2.52,1.88-3.85
	c0.99-1.82,2.02-3.39,3-4.74c0.04-0.1,0.08-0.23,0.1-0.41c0.03-0.2,0.03-0.45-0.03-0.74c-0.1-0.47-0.34-0.81-0.45-0.98
	c-1.02-1.43-2.38-2.15-2.38-2.15c-1.67-1.33-3-1.59-3.91-1.58c-0.74,0.01-1.42,0.21-2.78,0.24c-0.66,0.02-1.75,0-2.06-0.01
	c-0.49-0.02-0.41-0.02-2-0.09c-1.42-0.06-2.58-0.11-3.34-0.14C63.72,15.24,64.2,16.41,64.69,17.59z"/>
<path class="st0" d="M40.69,18.31c-4.67-0.01-8.18-0.02-10.65-0.05c0,0-0.98,0.01-2.63,0.07c-2.51,0.1-3.79,0.15-4.75,0.42
	c-1.06,0.3-2.49,0.7-3.49,1.88c-0.9,1.06-1,2.93-1.19,6.63c-0.07,1.3-0.15,3.01-0.24,5.02c-0.92-1.72-1.97-3.54-3.19-5.41
	c-1.67-2.57-3.36-4.82-4.97-6.76c-0.06-0.13-0.14-0.32-0.19-0.56c-0.06-0.27-0.09-0.61-0.02-0.99c0.11-0.62,0.6-1.26,0.6-1.26
	c1.06-1.38,2.41-2.17,2.41-2.17c1.2-0.71,2.25-0.92,2.53-0.98c0.73-0.14,1.36-0.14,1.81-0.12c1.99-0.07,4.05-0.11,6.17-0.1
	c2.83,0.01,5.55,0.09,8.16,0.23C34.27,15.54,37.48,16.93,40.69,18.31z"/>
<path class="st0" d="M40.63,2.14c-0.14-0.06-0.4-0.16-0.65-0.05c-0.42,0.17-0.7,0.81-0.52,1.54c0.15,0.79,0.34,1.64,0.58,2.51
	c0.5,1.79,1.11,3.35,1.73,4.66c0.7,1.32,2.09,1.88,3.18,1.46c1-0.39,1.4-1.44,1.46-1.62c0.06-0.51,0.12-1.44-0.22-2.52
	c-0.32-1.03-0.85-1.72-1.18-2.08c-0.48-0.59-1.05-1.22-1.73-1.85C42.35,3.32,41.44,2.66,40.63,2.14z"/>
<path class="st0" d="M11.77,77.06c1.55-0.55,3.12-1.13,4.72-1.74c2.51-0.96,4.71-1.73,7.44-2.89c1.94-0.83,3.45-1.56,5.21-2.41
	c1.96-0.95,4.04-1.76,5.91-2.8c0,0,0.74-0.41,3-1.23c0.31-0.11,0.86-0.3,1.55-0.3c0.16,0,0.98,0.01,1.25,0.3
	c0.49,0.52-0.88,1.85-1.64,2.54c-3.85,3.52-8.29,5.77-8.81,6.03c-2.51,1.25-1.73,0.88-6.17,2.72c-3.48,1.44-6.84,2.68-10.05,3.77
	c-1.61,0.54-3.44-0.02-3.9-1.19c-0.04-0.1-0.08-0.2-0.12-0.3C9.77,78.59,10.46,77.53,11.77,77.06z"/>
<path class="st0" d="M67.15,74.21c4.35,1.23,6.54,1.31,8.82,1.61c1.09,0.14,2.16,0.26,3.2,0.36c0.89,0.08,1.64,0.95,1.78,2.04
	c0.01,0.11,0.03,0.22,0.04,0.33c0.16,1.32-0.63,2.43-1.71,2.35c-2.14-0.14-4.43-0.4-6.84-0.82c-2.74-0.48-2.11-0.35-4.35-0.91
	c-1.94-0.49-4.82-1.22-8.3-2.78c-2.38-1.06-4.44-2.01-6.61-3.97c-0.6-0.55-0.99-0.98-1.15-1.17c-0.67-0.81-0.69-1.13-1.58-2.77
	c-0.82-1.51-1.39-2.32-1.1-2.71c0.34-0.45,0.88-0.57,0.88-0.57c0.01,0,0.01,0,0.01,0c0.63-0.13,1.36,0.38,1.36,0.38
	c1.03,0.7,5.51,4.16,5.51,4.16c1.24,0.96,2.29,1.45,4.38,2.42C62.08,72.42,64.18,73.37,67.15,74.21z"/>
</svg>
