<?xml version="1.0" encoding="utf-8"?>
<!-- Generator: Adobe Illustrator 23.0.2, SVG Export Plug-In . SVG Version: 6.00 Build 0)  -->
<svg version="1.1" id="Слой_1" xmlns="http://www.w3.org/2000/svg" xmlns:xlink="http://www.w3.org/1999/xlink" x="0px" y="0px"
	 viewBox="0 0 85.04 85.04" style="enable-background:new 0 0 85.04 85.04;" xml:space="preserve">
<style type="text/css">
	.st0{fill:#3AAA35;}
</style>
<path class="st0" d="M45.26,15.23c6.02,0.2,10.96,0.67,14.34,1.05c-10.1,7.31-19.91,14.11-29.43,20.39c0,0,0,0,0,0
	c-0.05,0.04-19.25,14.47-23,26.03c-0.38,1.16-1.07,3.46-0.47,6.17c0.18,0.79,1.12,4.58,4.08,5.73c0.64,0.25,1.11,0.27,2.56,0.29
	c1.81,0.03,4.24,0.05,7.17,0c4.07,0,10.09,0,14.15,0c6.33,0,12.67-0.01,19-0.02c19.57-7.16,24.17-9.9,23.89-10.93
	c-0.12-0.45-1.1-0.38-2.48-1.61c-1.6-1.42-1.38-2.62-2.75-3.82c-0.59-0.52-1.61-1.16-3.42-1.34c1.88,1.65,4.45,4.26,3.72,5.9
	c-0.02,0.05-0.05,0.1-0.1,0.19c-0.34,0.62-1.24,2.12-2.96,3.47c-3.17,2.48-6.76,2.59-13.7,2.64c-3.94,0.03-4.85,0-11.62,0
	c-2.44,0-5.4,0.01-10.23,0c-8.53-0.02-11.4-0.09-13.65-2.21c-1.24-1.16-1.85-2.54-2.18-3.5c-0.05-1.59,0.14-2.79,0.26-3.39
	c3.75-19.43,46.83-37.86,50.64-41.5c1.19-1.14,1.5-2.47,1.5-2.47c0.25-1.1,0.03-2.01-0.1-2.42c-0.03-0.28-0.19-1.35-1.14-2.21
	c-0.89-0.81-2.02-0.89-2.44-0.93c-3.84-0.3-31.82,2.39-31.45,4.2C35.55,15.43,37.35,14.97,45.26,15.23z"/>
<path class="st0" d="M7.83,12.83c0.25-1.43,1.6-2.41,3.06-2.41c8.37,0,47.7,0,56.08,0c1.45,0,2.81,0.98,3.06,2.41
	c0.32,1.85-1.1,3.46-2.9,3.46H10.73C8.93,16.29,7.5,14.68,7.83,12.83z"/>
<path class="st0" d="M59.31,15.47v2.04h10.37c0.2-0.33,0.47-0.85,0.6-1.54c0.19-0.95,0.02-1.7-0.08-2.12
	c-0.14-0.62-0.32-1.39-0.99-2.07c-0.48-0.5-1.02-0.74-1.34-0.86C65.02,12.44,62.16,13.95,59.31,15.47z"/>
<path class="st0" d="M44.25,69.38c2.96,0.01,6.53-0.11,10.24-0.52c1.05-0.12,1.93-0.24,3.7-0.49c4.15-0.58,4.88-0.8,5.43-1.01
	c1.61-0.59,3.06-1.12,4-2.45c0.96-1.36,0.72-3.67,0.26-8.25c-0.16-1.59-0.38-3.67-0.64-6.12c1.5,1.92,3.19,3.93,5.09,5.98
	c2.61,2.81,5.2,5.23,7.62,7.3c0.11,0.15,0.24,0.37,0.35,0.65c0.12,0.31,0.22,0.72,0.21,1.19c-0.02,0.77-0.36,1.35-0.53,1.63
	c-1.45,2.4-3.88,3.72-3.88,3.72c-4.17,2.27-9.06,3.05-9.64,3.14c-3.14,0.48-7.5,0.92-12.79,0.73
	C50.52,73.05,47.38,71.22,44.25,69.38z"/>
<polygon class="st0" points="43.06,69.65 46.11,69.65 54.78,74.65 51.57,74.61 "/>
</svg>
