<?xml version="1.0" encoding="utf-8"?>
<!-- Generator: Adobe Illustrator 23.0.2, SVG Export Plug-In . SVG Version: 6.00 Build 0)  -->
<svg version="1.1" id="Слой_1" xmlns="http://www.w3.org/2000/svg" xmlns:xlink="http://www.w3.org/1999/xlink" x="0px" y="0px"
	 viewBox="0 0 85.04 85.04" style="enable-background:new 0 0 85.04 85.04;" xml:space="preserve">
<style type="text/css">
	.st0{fill:#3AAA35;}
</style>
<path class="st0" d="M43.82,78.54h-1.04c-1.37,0-2.49-1.11-2.49-2.49V12.61c0-1.37,1.11-2.49,2.49-2.49h1.04
	c1.37,0,2.49,1.11,2.49,2.49v63.44C46.31,77.42,45.19,78.54,43.82,78.54z"/>
<rect x="40.57" y="17.56" transform="matrix(-1.836970e-16 1 -1 -1.836970e-16 92.638 6.0399)" class="st0" width="5.45" height="63.55"/>
<path class="st0" d="M11.53,13.08v-0.47c0-1.37,1.11-2.49,2.49-2.49h58.57c1.37,0,2.49,1.11,2.49,2.49v0.47
	c0,1.37-1.11,2.49-2.49,2.49H14.01C12.64,15.57,11.53,14.46,11.53,13.08z"/>
<path class="st0" d="M14.01,10.12h1.04c1.37,0,2.49,1.11,2.49,2.49v41.85c0,1.37-1.11,2.49-2.49,2.49h-1.04
	c-1.37,0-2.49-1.11-2.49-2.49V12.61C11.53,11.24,12.64,10.12,14.01,10.12z"/>
<path class="st0" d="M71.54,10.12h1.04c1.37,0,2.49,1.11,2.49,2.49v41.85c0,1.37-1.11,2.49-2.49,2.49h-1.04
	c-1.37,0-2.49-1.11-2.49-2.49V12.61C69.05,11.24,70.17,10.12,71.54,10.12z"/>
<rect x="40.57" y="5.23" transform="matrix(6.123234e-17 -1 1 6.123234e-17 12.2065 74.3915)" class="st0" width="5.45" height="51.72"/>
<path class="st0" d="M43.82,78.54h-1.04c-1.37,0-2.49-1.11-2.49-2.49V12.61c0-1.37,1.11-2.49,2.49-2.49h1.04
	c1.37,0,2.49,1.11,2.49,2.49v63.44C46.31,77.42,45.19,78.54,43.82,78.54z"/>
<path class="st0" d="M14.01,10.12h1.04c1.37,0,2.49,1.11,2.49,2.49v41.85c0,1.37-1.11,2.49-2.49,2.49h-1.04
	c-1.37,0-2.49-1.11-2.49-2.49V12.61C11.53,11.24,12.64,10.12,14.01,10.12z"/>
<path class="st0" d="M11.52,13.08v-0.47c0-1.37,1.11-2.49,2.49-2.49h58.57c1.37,0,2.49,1.11,2.49,2.49v0.47
	c0,1.37-1.11,2.49-2.49,2.49H14.01C12.64,15.57,11.52,14.46,11.52,13.08z"/>
<rect x="40.57" y="5.23" transform="matrix(6.123234e-17 -1 1 6.123234e-17 12.2064 74.3914)" class="st0" width="5.45" height="51.72"/>
<path class="st0" d="M71.54,10.12h1.04c1.37,0,2.49,1.11,2.49,2.49v41.85c0,1.37-1.11,2.49-2.49,2.49h-1.04
	c-1.37,0-2.49-1.11-2.49-2.49V12.61C69.05,11.24,70.17,10.12,71.54,10.12z"/>
<rect x="40.57" y="17.56" transform="matrix(-1.836970e-16 1 -1 -1.836970e-16 92.638 6.0399)" class="st0" width="5.45" height="63.55"/>
</svg>
