<?xml version="1.0" encoding="utf-8"?>
<!-- Generator: Adobe Illustrator 23.0.2, SVG Export Plug-In . SVG Version: 6.00 Build 0)  -->
<svg version="1.1" id="Слой_1" xmlns="http://www.w3.org/2000/svg" xmlns:xlink="http://www.w3.org/1999/xlink" x="0px" y="0px"
	 viewBox="0 0 85.04 85.04" style="enable-background:new 0 0 85.04 85.04;" xml:space="preserve">
<style type="text/css">
	.st0{fill:#405EA9;}
</style>
<path class="st0" d="M49.45,12.53c2.18-0.77,4.84-1.71,7.58-3.02c1.35-0.64,2.72-1.24,4.05-1.91c2.71-1.36,3.64-1.46,5.15-2.1
	c1.42-0.6,3.02-0.16,3.78,1.02c0.08,0.12,0.15,0.24,0.23,0.36c0.92,1.44,0.24,3.38-1.46,4.14c-3.39,1.52-7.07,3.01-11.04,4.41
	c-4.43,1.57-3.43,1.33-7.21,2.34c-6.6,1.77-12.03,2.18-16.53,2.49c-0.84,0.06-1.66,0.1-1.66,0.1c-0.67,0.03-1.44,0.06-2.43,0.09
	c-1.95,0.04-3.73,0.03-6.59,0.01c-0.57,0-2.81-0.02-5.56-0.43c-0.85-0.13-1.85-0.31-2.38-1.11c-0.3-0.45-0.5-1.25-0.14-1.88
	c0.05-0.09,0.27-0.46,0.68-0.61c0.37-0.13,0.91-0.09,0.91-0.09l0,0c-1.16-0.11,4.7,0.44,5.36,0.46c1.62,0.04,3.63-0.02,4.11-0.04
	c0.09,0,0.29-0.01,0.56-0.02c2.71-0.1,4.07-0.15,5.92-0.33c1.48-0.14,4.18-0.42,7.54-1.15C43.8,14.53,46.25,13.66,49.45,12.53z"/>
<path class="st0" d="M8.91,45.55v2.65c0,0.9,1.11,1.64,2.47,1.64h4.3h31.33h26.78c1.36,0,2.47-0.73,2.47-1.64v-2.65
	c0-0.9-1.11-1.64-2.47-1.64H11.38C10.01,43.92,8.91,44.65,8.91,45.55z"/>
<path class="st0" d="M16.05,74.43v2.65c0,0.9,0.87,1.64,1.94,1.64h3.39h24.69h21.1c1.07,0,1.94-0.73,1.94-1.64v-2.65
	c0-0.9-0.87-1.64-1.94-1.64H18C16.92,72.79,16.05,73.52,16.05,74.43z"/>
<path class="st0" d="M41.25,78.29h2.65c0.9,0,1.64-1.04,1.64-2.31v-4.03V42.61V17.53c0-1.28-0.73-2.31-1.64-2.31h-2.65
	c-0.9,0-1.64,1.04-1.64,2.31v58.45C39.62,77.26,40.35,78.29,41.25,78.29z"/>
</svg>
