<?xml version="1.0" encoding="utf-8"?>
<!-- Generator: Adobe Illustrator 23.0.2, SVG Export Plug-In . SVG Version: 6.00 Build 0)  -->
<svg version="1.1" id="Слой_1" xmlns="http://www.w3.org/2000/svg" xmlns:xlink="http://www.w3.org/1999/xlink" x="0px" y="0px"
	 viewBox="0 0 85.04 85.04" style="enable-background:new 0 0 85.04 85.04;" xml:space="preserve">
<style type="text/css">
	.st0{fill:#405EA9;}
</style>
<path class="st0" d="M24.05,33.93c0.24-0.47,0.64-0.71,1.03-0.71h35.41c0.4,0,0.79,0.24,1.03,0.71c1.15,2.22,0.11,4.66-1.33,4.66
	H25.38C23.95,38.59,22.9,36.15,24.05,33.93z"/>
<path class="st0" d="M44.77,35.29c0.47,0.09,0.71,0.23,0.71,0.37v12.66c0,0.14-0.24,0.28-0.71,0.37c-2.22,0.41-4.66,0.04-4.66-0.47
	V35.76C40.11,35.25,42.55,34.88,44.77,35.29z"/>
<path class="st0" d="M8.7,47.53v2.65c0,0.9,1.11,1.64,2.47,1.64h4.3H46.8h26.78c1.36,0,2.47-0.73,2.47-1.64v-2.65
	c0-0.9-1.11-1.64-2.47-1.64H11.17C9.8,45.9,8.7,46.63,8.7,47.53z"/>
<path class="st0" d="M45.29,44.3c0.25,2.34,0.27,5.28-0.4,8.58c-1.09,5.3-3.43,8.86-4.11,9.85c-1.86,2.7-3.76,4.34-5.21,5.59
	c-0.72,0.62-3.89,3.61-9.62,5.85c-5.07,1.99-9.93,2.55-13.48,2.64c-2.06,0.05-3.75-1.25-3.75-2.85c0-1.42,1.33-2.62,3.14-2.82
	c5.42-0.58,9.08-1.64,12.01-3.02c2.98-1.41,5.04-2.75,7.39-4.79c2.23-1.94,6.22-5.41,8.03-11.28c0.42-1.34,0.9-3.38,0.92-6"/>
<path class="st0" d="M42.03,11.56c-0.16,0.62-0.4,1.47-0.8,2.45c-0.45,1.13-0.92,1.97-1.27,2.59c-2.83,4.94-5.85,8.69-5.85,8.69
	c-1.25,1.56-2.45,2.99-4.13,4.43c-0.57,0.49-3.08,2.86-7.62,4.64c-4.02,1.57-7.87,2.02-10.68,2.1C10.04,36.5,8.7,35.47,8.7,34.2
	c0-1.12,1.06-2.08,2.49-2.23c4.3-0.46,7.19-1.3,9.51-2.39c2.36-1.12,3.99-2.18,5.86-3.8c1.77-1.54,4.93-4.29,6.37-8.94
	c0.17-0.55,0.3-1.11,0.31-1.14c0,0,0,0,0,0c0.13-0.97,0.27-1.94,0.4-2.91"/>
<path class="st0" d="M15.61,8.14c0.17-0.47,0.45-0.71,0.72-0.71h24.84c0.28,0,0.55,0.24,0.72,0.71c0.81,2.22,0.07,4.66-0.93,4.66
	H16.54C15.54,12.8,14.8,10.35,15.61,8.14z"/>
<path class="st0" d="M17.54,14.27c-0.18-0.04-0.52-0.08-0.8,0.12c-0.47,0.33-0.65,1.2-0.27,2.05c0.37,0.94,0.8,1.93,1.31,2.94
	c1.03,2.07,2.16,3.82,3.22,5.27c1.17,1.44,2.99,1.75,4.22,0.92c1.12-0.75,1.35-2.17,1.39-2.41c-0.04-0.64-0.21-1.81-0.87-3.04
	c-0.64-1.18-1.45-1.88-1.94-2.24c-0.72-0.59-1.57-1.21-2.55-1.81C19.92,15.25,18.65,14.68,17.54,14.27z"/>
<path class="st0" d="M61.24,25.36c2.71,1.91,4.98,2.84,8.65,4.37c1.08,0.45,2.14,0.86,3.18,1.23c0.88,0.31,1.52,1.88,1.5,3.67
	c0,0.18,0,0.37,0,0.55c-0.02,2.18-0.98,3.82-2.05,3.49c-2.13-0.66-4.4-1.54-6.78-2.7c-1.49-0.73-2.91-1.53-4.25-2.35
	c-3.69-2.27-6.35-5.15-7.56-6.45c-0.8-0.86-2.98-3.27-5.6-7.14c-1.49-2.2-2.79-4.38-3.91-6.41c-0.84-1.53-0.81-4.18,0.07-5.57v0
	c0.68-1.07,1.64-1.02,2.29,0.14c1.48,2.63,3.32,5.54,5.54,8.39C56.44,21.84,59.98,24.47,61.24,25.36z"/>
<path class="st0" d="M48.45,54.23c2.06,2.3,3.86,4.22,5.25,5.69c2.45,2.58,4.09,4.2,6.31,5.9c2.55,1.95,3.85,2.92,5.42,2.75
	c1.55-0.16,2.67-1.36,4.83-3.75c1.84-2.03,3.15-3.87,4-5.17c-0.04,1.29-0.11,2.93-0.25,4.83c-0.04,0.61-0.14,1.92-0.31,3.5
	c-0.2,1.86-0.53,4.32-1.09,7.24c-0.06,0.2-0.15,0.46-0.31,0.74c-0.18,0.32-0.45,0.69-0.85,1c-0.64,0.5-1.36,0.62-1.69,0.67
	c-2.75,0.4-5.86-0.91-5.86-0.91c-1.66-0.7-4.34-2.07-7.12-4.79c-1.51-1.48-2.9-2.91-4.88-5.26c-1.44-1.72-3.28-3.99-5.33-6.77
	c0.55-1.22,1.07-2.6,1.5-4.13C48.21,55.25,48.34,54.73,48.45,54.23z"/>
<polygon class="st0" points="56.85,7.19 49.85,16.8 51.6,19.37 62.85,11.38 "/>
<polygon class="st0" points="64.2,12.28 56.7,22.25 58.58,24.92 70.62,16.63 "/>
</svg>
